<?xml version="1.0" encoding="UTF-8" standalone="no"?>
<!-- Generator: Adobe Illustrator 19.0.1, SVG Export Plug-In . SVG Version: 6.00 Build 0)  -->

<svg
   xmlns:dc="http://purl.org/dc/elements/1.1/"
   xmlns:cc="http://creativecommons.org/ns#"
   xmlns:rdf="http://www.w3.org/1999/02/22-rdf-syntax-ns#"
   xmlns:svg="http://www.w3.org/2000/svg"
   xmlns="http://www.w3.org/2000/svg"
   xmlns:sodipodi="http://sodipodi.sourceforge.net/DTD/sodipodi-0.dtd"
   xmlns:inkscape="http://www.inkscape.org/namespaces/inkscape"
   version="1.1"
   id="Layer_1"
   x="0px"
   y="0px"
   viewBox="0 0 304.9 72.1"
   enable-background="new 0 0 304.9 72.1"
   xml:space="preserve"
   inkscape:version="0.91 r13725"
   sodipodi:docname="large_logo.svg"><metadata
     id="metadata52"><rdf:RDF><cc:Work
         rdf:about=""><dc:format>image/svg+xml</dc:format><dc:type
           rdf:resource="http://purl.org/dc/dcmitype/StillImage" /></cc:Work></rdf:RDF></metadata><defs
     id="defs50" /><sodipodi:namedview
     pagecolor="#ffffff"
     bordercolor="#666666"
     borderopacity="1"
     objecttolerance="10"
     gridtolerance="10"
     guidetolerance="10"
     inkscape:pageopacity="0"
     inkscape:pageshadow="2"
     inkscape:window-width="1920"
     inkscape:window-height="1178"
     id="namedview48"
     showgrid="false"
     inkscape:zoom="0.95395828"
     inkscape:cx="150.95"
     inkscape:cy="35.049999"
     inkscape:window-x="-8"
     inkscape:window-y="-8"
     inkscape:window-maximized="1"
     inkscape:current-layer="Layer_1" /><g
     id="XMLID_812_"><path
       id="XMLID_16_"
       fill="#699E5F"
       d="M57,39.1c0.5-0.1,0.9-0.1,1.2-0.5c0.1-0.2,0.3-0.3,0.5-0.4c0.9-0.5,1.7-1.1,2.7-1.3   c0.7-0.2,1.4-0.4,2.2-0.4c0.2,0,0.5,0,0.7,0c1.1,0,2.3,0,3.4,0c0.4,0,0.8,0.2,1.2,0.3c0.5,0.1,1,0.2,1.5,0.3c0.1,0,0.3,0,0.4,0.1   c0.9,0.8,2.1,1.2,2.9,2.1c1,1.2,2,2.5,2.8,3.8c0.3,0.6,0.5,1.3,0.6,1.9c0.3,1.5,0.5,3.1,0.7,4.6c0.1,1.2,0,2.5,0.1,3.7   c0.1,1.2-0.3,2.4-0.1,3.7c0.1,0.4-0.1,0.8-0.2,1.2c-0.2,0.8-0.4,1.6-0.6,2.4c0,0.1,0,0.2,0,0.2c-0.4,0.9-0.7,1.8-1.2,2.7   c-0.5,0.9-1.2,1.7-1.9,2.4c-0.3,0.3-0.6,0.4-1,0.4c-0.3,0-0.7,0-1-0.1c-0.1,0.1-0.1,0.1-0.1,0.2c0,0.7-0.2,1.3-1,1.4   c-0.2,0-0.3,0.2-0.5,0.3c-0.1,0.1-0.2,0.2-0.3,0.2c-0.7,0.1-1.4,0.3-2.1,0.4c-0.8,0.1-1.6,0.2-2.5,0.3c-0.4,0-0.7,0-1.1-0.1   c-0.2,0-0.4-0.1-0.6,0c-1.1,0-2.2-0.2-3.2-0.7c-0.1,0-0.1-0.1-0.2-0.1c-1.8-0.2-3-1.3-4.2-2.5c-0.5-0.5-0.8-0.5-1.2,0   c-0.7,0.9-1.5,1.7-2.4,2.4c-0.9,0.8-1.9,1-3.1,1.1c-1.1,0.1-2.1,0-3.2,0.1c-1.8,0.2-3.6-0.2-5.4-0.1c-1.6,0.1-3.1,0.1-4.7,0.1   c-1.2,0-2.5,0-3.7,0c-0.3,0-0.5-0.1-0.8-0.2c-0.7-0.1-1.1-0.5-1.2-1.1c-0.2-0.8-0.3-1.6-0.4-2.4c-0.1-0.5-0.1-1.1-0.2-1.6   c-0.1-0.7,0.1-0.9,0.8-0.9c0.6,0,1.1-0.2,1.3-0.7c0.1-0.4,0.2-0.8,0.1-1.2c-0.3-1.1-0.8-2.2-1.2-3.4c-1,0-1.9,0-2.8,0   c-1.5,0.1-3,0.2-4.6,0.3c-0.7,0-1.4,0.1-2.1,0.1c0,0-0.1,0-0.1,0c-1-0.5-2.2,0-3.2-0.3c-0.2-0.1-0.4-0.1-0.6-0.1   c-0.5,0.4-1,0.9-1.1,1.7c-0.1,0.6-0.4,1.2-0.5,1.8c-0.3,1,0.2,1.7,1.2,2c0.2,0,0.4,0.1,0.6,0.1c0.6,0.1,0.7,0.3,0.6,0.9   c-0.2,1.2-0.4,2.4-0.7,3.5c-0.1,0.3-0.1,0.7-0.3,1c-0.3,0.7-1.1,0.7-1.7,0.7c-0.7,0-1.4-0.1-2.1-0.1c-1.1,0.1-2.2,0-3.3-0.1   c-0.1,0-0.3-0.1-0.4,0c-0.8,0.3-1.6,0.1-2.5,0.1c-0.9,0-1.8,0.1-2.7,0.1c-0.7,0.1-1.1-0.1-1.3-0.9c-0.2-0.9-0.6-1.8-0.6-2.8   c0-0.4-0.2-0.8-0.3-1.3c-0.3-1.1,0.1-1.7,1.2-1.9c0.4-0.1,0.8-0.2,1.2-0.2c0.6-0.1,0.8-0.5,1.1-1c0.6-1.3,1-2.6,1.4-4   c0.3-1,0.6-2,1-2.9c0.5-0.9,0.5-1.8,0.9-2.6c0.1-0.4,0.3-0.8,0.5-1.2c0-0.1,0.1-0.1,0.1-0.2c0.2-1.5,1.1-2.7,1.3-4.2   c0-0.1,0.1-0.3,0.2-0.4c0.4-0.3,0.4-0.7,0.5-1.1c0.1-0.5,0.2-0.9,0.4-1.4c0.3-1,0.6-1.9,1-2.9c0.1-0.2,0.2-0.4,0.2-0.6   c0.2-0.4,0.4-0.8,0.5-1.2c0.4-1.1,0.9-2.1,1.3-3.2c0.3-0.7,0-1.1-0.8-1.2c-0.3,0-0.5-0.1-0.8-0.1c-1.1,0.1-1.5-0.5-1.3-1.6   c0.2-1.3,0.4-2.6,0.6-3.8c0.2-1.4,1-2,2.5-1.9c0.4,0,0.8,0.1,1.3,0.2c0.5,0,0.9,0.1,1.4,0.1c1.2-0.1,2.4-0.1,3.6,0.1   c0.1,0,0.2,0.1,0.3,0.1c1-0.4,2,0.3,3,0c0.1,0,0.1,0,0.2,0c0.9,0.4,1.8,0.1,2.8,0.1c1.5,0,2.9,0.2,4.4,0c0.3,0,0.6,0,1,0.1   c0.5,0.1,0.9,0.1,1.4,0.1c0.7-0.1,1.4,0.1,1.9,0.7c0.1,0.1,0.2,0.4,0.2,0.6c0.1,0.6,0.2,1.1,0.4,1.7c0,0.3,0.1,0.5,0.1,0.8   c0,0.2,0,0.4,0.1,0.6c0.2,0.5,0.2,1,0.3,1.6c0,0.4-0.2,0.6-0.5,0.7c-0.2,0-0.5,0-0.7,0c-0.3,0.1-0.7,0.1-1,0.3   c-0.6,0.4-0.7,0.9-0.4,1.5c0.4,1,0.8,2.1,1.2,3.2c0.1,0.4,0.3,0.7,0.4,1.1c0.2,0.7,0.5,1.3,0.7,2c0.2,0.7,0.4,1.4,0.6,2.1   c0.4,1.3,1,2.6,1.4,3.9c0.3,1,0.9,1.8,0.9,2.9c0,0.4,0.3,0.7,0.4,1c0.2,0.6,0.4,1.3,0.6,2c0.2,0.5,0.1,0.9-0.1,1.3   c-0.2,0.5-0.2,0.7,0.3,1c0.4,0.3,0.6,0.6,0.8,1c0.1,0.3,0.3,0.5,0.4,0.7c0.1,0.1,0.1,0.2,0.1,0.3c0.1,1.2,0.6,2.3,1.1,3.5   c0.3,0.8,1,1.3,1.9,1.5c0.4,0.1,0.7-0.1,0.7-0.6c0-1-0.1-1.9-0.1-2.9c0-0.2,0-0.3,0-0.5c0.3-1.9,0-3.7-0.1-5.5   c-0.1-1.3-0.1-2.7-0.1-4c0-0.9-0.1-1.8-0.2-2.7c0-0.9-0.1-1.9-0.1-2.8c0-0.2,0-0.4,0-0.6c-0.1-1.1-0.3-2.1-0.3-3.2   c0-0.6,0.1-1.2,0.1-1.8c-0.1-1.5-0.1-3-0.2-4.6c0-0.1,0-0.3,0.1-0.4c0.5-1,0.3-2,0.3-3.1c0-0.3,0-0.5,0.1-0.8   c0.3-1.2-0.5-2.4-1.8-2.6c-0.2,0-0.4,0-0.6,0c-0.7-0.2-1.2-0.9-0.9-1.6c0.4-1,0.6-2.1,0.7-3.1c0.1-1.2,1-1.8,2.1-1.7   c1.3,0.1,2.5-0.2,3.7-0.5c0.8-0.3,1.7-0.3,2.5-0.5c0.9-0.2,1.7-0.2,2.6-0.4c1-0.2,2-0.4,3-0.5c0.1,0,0.3,0,0.4-0.1c1-0.3,1.7,0,2,1   c0.1,0.5,0.2,0.9,0.3,1.4c0.1,0.5-0.2,1,0.3,1.3c-0.2,0.5,0.1,1,0.2,1.5c0.1,0.5-0.3,1-0.8,1.2c-0.5,0.1-0.9,0.3-1.3,0.6   c-0.2,0.1-0.4,0.4-0.5,0.6c-0.2,0.5-0.3,1-0.4,1.6c-0.1,1.3-0.2,2.5-0.3,3.8c-0.1,0.8-0.2,1.6-0.9,2.1c-0.3,0.2-0.3,0.6,0,0.8   c0.7,0.6,0.8,1.4,0.6,2.2c-0.1,0.6-0.1,1.2-0.1,1.8C56.8,38.8,56.9,38.9,57,39.1z M62.3,61.2C62.3,61.2,62.3,61.2,62.3,61.2   c0.3,0,0.7,0.1,0.9-0.1c0.4-0.3,1-0.3,1.4-0.5c0.2-0.1,0.4-0.1,0.6-0.3c0.5-0.6,1-1.2,1.2-2c0.3-1.1,0.6-2.3,0.4-3.5   c0-0.1,0-0.3,0-0.4c0-1.1,0.1-2.1,0-3.2c0-0.7-0.2-1.3-0.3-2c-0.2-1.1-0.2-2.1-0.9-3c-0.4-0.5-0.6-1.2-1.3-1.3   c-0.8-0.2-1.6-0.6-2.5-0.2c-0.2,0.1-0.5,0.1-0.7,0.1c-0.7-0.1-1.3,0.1-1.8,0.6c-0.2,0.1-0.4,0.2-0.5,0.4c-0.4,0.5-0.9,0.9-1.1,1.5   c-0.3,0.6-0.3,1.4-0.4,2c-0.2,1.7,0.1,3.5,0,5.2c-0.1,1,0,2,0.2,2.9c0.4,1.7,1.8,3.3,3.6,3.6C61.5,61.1,61.9,61.2,62.3,61.2z    M24.6,34.5c-0.1,0.3-0.2,0.4-0.3,0.5c-0.3,1.2-0.8,2.4-0.9,3.6c-0.1,0.9-0.3,1.9-0.6,2.7c-0.6,2-1.5,4-2.3,6   c-0.3,0.7-0.6,1.4-0.9,2.1c-0.1,0.3-0.3,0.7-0.1,0.9c0.8,0,1.4,0,2,0c1.9,0,3.7,0.1,5.6,0.1c0.5,0,0.9-0.1,1.5-0.1   c0-0.6,0-1-0.3-1.4c-0.4-0.6-0.6-1.2-0.8-1.9c-0.3-0.8-0.4-1.6-0.7-2.4c-0.4-1.5-0.9-2.9-1.3-4.4c-0.2-0.8-0.5-1.8-0.4-2.6   c0.1-0.9-0.2-1.6-0.3-2.3C24.7,35.1,24.7,34.8,24.6,34.5z M51.4,26.9c-0.1,0.5,0.2,0.7,0.6,0.8c0.1,0,0.2-0.1,0.3-0.2   C52,27.3,51.7,27.1,51.4,26.9z M72.1,55.1c0-0.3,0-0.5,0-0.9C71.7,54.6,71.7,54.9,72.1,55.1z M34.7,58.8c0.4,0.1,0.6,0.5,1,0.3   C35.2,58.6,35.2,58.6,34.7,58.8z M73.5,58.1c0.2-0.2,0.2-0.3,0.4-0.4c-0.2-0.1-0.4-0.1-0.8-0.2C73.3,57.8,73.4,57.9,73.5,58.1z    M38.3,63c0-0.1-0.1-0.1-0.1-0.2c-0.1,0.1-0.3,0.2-0.5,0.4C38.2,63.4,38.2,63.1,38.3,63z M35.9,60.9c0.6,0.1,0.6,0.1,0.6-0.3   C36.3,60.7,36.1,60.8,35.9,60.9z M74.4,53c0.1,0,0.1,0,0.2,0c0-0.3,0.4-0.4,0-0.9C74.5,52.5,74.4,52.8,74.4,53z M56,22.9   c0.2,0.3,0.3,0.4,0.4,0.6C56.4,23,56.4,23,56,22.9z M39.2,62.5c0,0.1-0.1,0.1-0.1,0.2c0,0.1,0.1,0.1,0.1,0.2c0.1,0.1,0.4,0,0.3-0.1   C39.5,62.6,39.3,62.6,39.2,62.5z M51.8,49.6c0,0,0.1,0,0.1,0.1c0.1-0.2,0.1-0.3,0.2-0.5c-0.1,0-0.1,0-0.2-0.1   C51.9,49.3,51.8,49.5,51.8,49.6z M64.2,64.9c0.2-0.2,0.3-0.3,0.4-0.4C64.1,64.3,64.1,64.3,64.2,64.9z M48.7,63.3   c0-0.1,0.1-0.2,0.1-0.3c0,0-0.1-0.1-0.2-0.1c-0.1,0.1-0.1,0.1-0.2,0.2C48.6,63.2,48.6,63.3,48.7,63.3z M50.4,66.2   c-0.4,0.3-0.3,0.4-0.1,0.7C50.4,66.6,50.4,66.5,50.4,66.2z M68.2,62.6c0,0,0.1-0.1,0.1-0.1c-0.1-0.1-0.3-0.2-0.4-0.2   c0,0.1-0.1,0.1-0.1,0.2C67.9,62.4,68.1,62.5,68.2,62.6z M40,62.7c0,0.1,0,0.1,0,0.2c0.1,0,0.2,0,0.3,0c0,0,0-0.1,0-0.1   C40.2,62.8,40.1,62.7,40,62.7z M54.3,31.1c0.1,0,0.1-0.1,0.2-0.1c-0.1-0.1-0.1-0.2-0.2-0.2c0,0-0.1,0.1-0.1,0.1   C54.2,31,54.3,31.1,54.3,31.1z M49.1,64.3c0-0.2,0-0.4,0-0.6C48.8,63.9,48.8,64.1,49.1,64.3z" /><path
       id="XMLID_1594_"
       fill="#699E5F"
       d="M161.3,55.7c0.3,0.3,0.7,0.5,0.9,0.8c0.6,1,1.5,1.6,2.2,2.4c0.2,0.2,0.6,0.3,0.4,0.7   c0,0,0,0.1,0.1,0.1c0.7,0,0.9,0.7,1.3,0.9c0.5,0.2,1,0.5,1.4,0.8c0.6,0.7,1.5,0.8,2.3,1.2c0.4-0.2,0.8-0.2,1.3,0   c0.3,0.1,0.6,0.1,0.9-0.1c0.7-0.5,1.7-0.5,2.4-1.1c0.5-0.4,0.8-0.8,1.1-1.3c0.3-0.6,0.5-1.3,0.7-2c0-0.2,0-0.5,0.1-0.7   c0-0.5,0.3-0.7,0.7-0.7c0.7,0,1.4,0.1,2.1,0.1c0.1,0,0.3-0.1,0.4-0.1c0.4,0,0.9-0.1,1.3-0.1c0.2,0,0.4,0,0.6-0.1   c0.6-0.2,1.2-0.4,1.8-0.6c0.4,0.3,0.5,0.6,0.2,1c-0.2,0.3-0.2,0.6-0.3,0.9c-0.2,0.8-0.5,1.6-0.8,2.4c-0.4,1-0.8,1.9-1.4,2.8   c-0.4,0.7-1,1.4-1.5,2c-0.4,0.4-0.9,0.8-1.3,1.2c-0.5,0.5-1.2,0.8-1.9,0.8c-0.1-0.3-0.3-0.7-0.7-0.4c0.2,0.3,0.2,0.3,0.8,0.4   c-0.3,0.8-1.1,0.8-1.8,0.9c-0.6,0.1-1.2,0.3-1.8,0.4c-1.1,0.1-2.2,0.6-3.3,0.2c-0.2-0.1-0.5-0.1-0.8,0c-0.7,0.2-1.3,0-1.9-0.1   c-0.7-0.1-1.5-0.2-2.2-0.4c-1.1-0.2-2-0.6-3-1.2c-0.7-0.4-1.5-0.8-2.2-1.2c-0.3-0.2-0.5-0.2-0.8,0c-0.8,0.4-1.6,0.8-2.4,1.2   c-0.1,0.1-0.2,0.2-0.4,0.3c-0.2,0.1-0.5,0.3-0.7,0.4c-1.7,0.3-3.4,0.9-5.1,0.9c-0.5,0-1,0.2-1.5,0.1c-0.7,0-1.4-0.1-2.2-0.1   c-0.7,0-1.4-0.1-2.2-0.1c-1.1,0-2.2-0.4-3.3-0.6c-0.6-0.1-1.2-0.4-1.4-1.1c-0.1-0.6-1-1-1.7-0.7c-0.6,0.2-0.9,0.1-1.4-0.3   c-1.2-1.1-2.2-2.3-3-3.7c-0.6-1.1-0.8-2.3-1.3-3.4c-0.1-0.1,0-0.3,0-0.5c0-0.3,0-0.5-0.1-0.8c-0.4-1.4-0.1-2.9,0-4.3   c0.2-1.3,0.7-2.5,1.4-3.6c0.4-0.7,0.9-1.4,1.7-1.8c0.2-0.1,0.3-0.3,0.5-0.4c0.2-0.2,0.5-0.3,0.7-0.5c0,0,0.1,0,0.1-0.1   c0.7-0.8,1.7-1,2.6-1.5c0.7-0.4,1.4-0.7,2.1-1c0.2-0.1,0.3-0.2,0.6-0.4c-0.7-0.4-0.9-0.9-0.9-1.6c0-0.1-0.1-0.2-0.2-0.3   c-0.6-0.2-0.6-0.7-0.6-1.3c0-0.4-0.3-0.7-0.5-1.1c-0.2-0.3-0.2-0.6-0.2-1.1c0.2-1,0.1-1.9,0.3-2.9c0.1-0.9,0.4-1.7,0.7-2.6   c0.1-0.2,0.4-0.3,0.7-0.4c0.2-0.1,0.3-0.1,0.6-0.1c-0.6-0.7-0.1-1.2,0.3-1.7c0.8-1,2-1.6,3.1-2.2c0.6-0.3,1.3-0.8,2.1-0.5   c1-0.4,2.1,0,3.1-0.4c0.1,0,0.3,0,0.4,0c1.4,0.3,2.8,0.5,4.2,0.9c1.2,0.3,2.3,0.8,3.3,1.6c0.7,0.5,1.3,1,1.8,1.6   c0.7,0.9,1,2,1.4,3.1c0,0,0,0.1,0,0.2c-0.3,1,0.2,1.9,0,2.8c-0.1,0.5,0,1.2-0.6,1.5c0,0-0.1,0.1-0.1,0.1c-0.5,2-1,2.7-2.4,3.9   c-0.8,0.7-1.7,1.3-2.7,1.8c-0.8,0.5-0.9,0.9-0.3,1.7c0.5,0.6,0.9,1.3,1.3,2c0.4,0.5,0.8,1,1.1,1.5c0,0.1,0.1,0.1,0.2,0.2   c0.6,0.8,1.1,1.7,1.7,2.5c0.4,0.7,0.9,1.3,1.3,2c-0.2,0-0.3,0-0.6,0.1c0.3,0.3,0.5,0.6,0.8,0.8C161.2,56.1,161.3,55.9,161.3,55.7z    M179.4,58c0.1,0.3,0.2,0.5,0.7,0.1C179.8,58,179.6,58,179.4,58c0.2-0.2,0.2-0.4-0.2-0.6C179.3,57.7,179.4,57.8,179.4,58z    M151.1,48.9c0.1-0.2,0.1-0.3,0.2-0.5c-0.1,0-0.1,0-0.2,0C151.1,48.6,151.1,48.8,151.1,48.9c-0.2,0-0.4-0.1-0.5,0.2   C150.9,49.4,151,49.1,151.1,48.9z M157.7,39c-0.3-0.1-0.5-0.1-0.7,0.2c0,0.1,0.1,0.2,0.1,0.2C157.4,39.5,157.6,39.3,157.7,39   c0.5,0.2,0.5,0.2,0.6-0.2C158,38.9,157.8,39,157.7,39z M154.4,50.2c-0.2,0-0.3-0.1-0.5-0.1c0,0.3,0.1,0.5,0.2,0.7   c0,0,0.3-0.1,0.3-0.2C154.5,50.5,154.4,50.3,154.4,50.2c0.1-0.1,0.3-0.3,0.3-0.3c-0.1-0.3-0.3-0.2-0.5-0.1   C154.2,50,154.3,50.1,154.4,50.2z M154.1,65.4c0.1-0.3-0.2-0.4-0.4-0.5C153.8,65.1,154,65.3,154.1,65.4c0.2,0.1,0.3,0.3,0.5,0.5   c0.2-0.4,0.3-0.6,0.5-1c-0.3,0-0.5-0.1-0.6,0C154.4,65.1,154.3,65.3,154.1,65.4z M176.2,65.4c-0.3,0.6-0.3,0.6,0.4,1   C176.4,66,176.3,65.7,176.2,65.4c0.6-0.7,0.6-0.7,0-1.1c0,0.2-0.1,0.5-0.1,0.6c-0.3,0.1-0.6,0-0.7,0.2c-0.1,0.1,0,0.4,0,0.6   C175.7,65.6,176,65.5,176.2,65.4z M150.6,51.4c-0.5,0.2-0.9-0.2-1.4-0.3c0.2,1,0.2,1,0.4,1.3c0.2-0.1,0.4-0.3,0.6-0.5   C150.4,51.7,150.5,51.5,150.6,51.4c0.1,0,0.3-0.1,0.6-0.1c-0.4-0.1-0.6-0.2-0.8-0.3c0,0,0,0.1-0.1,0.1   C150.5,51.2,150.6,51.3,150.6,51.4z M147.3,65.8c0-0.3-0.1-0.6-0.1-1c-0.3,0.1-0.6,0.3-1.1,0.5c0.3,0.2,0.5,0.3,0.7,0.5   c0,0.3-0.2,0.7-0.1,0.8c0.5,0.4,0,0.7,0,0.9c0.2,0.2,0.4,0.3,0.6,0.5c0.2-0.2,0.3-0.3,0.4-0.3c-0.2-0.2-0.3-0.4-0.3-0.5   C147.2,66.7,147,66.2,147.3,65.8c0,0.2,0,0.4,0,0.6c0.1,0,0.1,0,0.2,0c0-0.2,0.1-0.4,0.1-0.6c-0.1,0-0.2,0-0.2,0   C147.4,65.7,147.3,65.7,147.3,65.8z M137.9,57.4c0.3-0.7,0.6-1.4,0-2.3c-0.1,0.3-0.2,0.5-0.1,0.7C137.8,56.4,137.9,56.9,137.9,57.4   c0.5-0.1,0.3,0.5,0.6,0.6c0.2,0,0.3,0,0.6,0.1c-0.1,0.2-0.2,0.4-0.3,0.6c0.5,0.3,0.7-0.1,1.1-0.4c-0.3-0.5,0.1-0.8,0.4-1.3   c-0.2-0.2-0.4-0.4-0.6-0.6c0-0.5,0-0.5-0.3-0.9c0,0.4-0.2,0.7,0.3,0.9c-0.2,0.4-0.5,0.8-0.7,1.2C138.7,57.5,138.4,57.2,137.9,57.4z    M145.1,49.7c-0.3,0.3-0.6,0.5-0.9,0.7c-0.2,0.1-0.4,0.2-0.5,0.4c-0.5,0.9-1.2,1.6-1.3,2.7c-0.1,0.6-0.4,1.3-0.3,1.9   c0.2,0.7-0.1,1.5,0.4,2.2c0.4,0.7,0.7,1.4,1.1,2.1c0.8,1,1.9,1.7,3.1,2.3c1.8,0.9,3.6,0.6,5.4,0.4c0.5-0.1,1-0.4,1.6-0.5   c0.4-0.1,0.6-0.4,0.6-0.8c-0.4-0.4-0.8-0.8-1.2-1.2c-0.6-0.5-1.4-0.9-1.7-1.7c-0.1-0.2-0.3-0.3-0.5-0.4c-0.3-0.3-0.8-0.5-0.9-0.9   c-0.5-1.1-1.2-1.9-1.9-2.8c-0.8-1-1.4-2.1-2.1-3.2C145.7,50.4,145.6,49.8,145.1,49.7z M149.1,36.3c-0.4,0.2-0.5,0.4-0.3,0.7   c0.5,1,1,2.1,1.8,2.9c0.2,0.3,0.5,0.4,0.8,0.2c0.6-0.3,1.3-0.6,1.8-1c0.8-0.7,1.5-1.6,1.4-2.9c0-0.1,0-0.2,0-0.2   c0.2-0.9-0.3-1.7-0.9-2.2c-1.2-1-3.1-0.9-4.1-0.1c-0.4,0.3-0.7,0.7-0.8,1.2C148.7,35.4,149,35.9,149.1,36.3z M158.9,64.8   c-0.2-0.3-0.4-0.6-0.6-0.8c0.1-0.2,0.2-0.3,0.3-0.5c-0.2-0.2-0.4-0.5-0.6-0.7c-0.5,0.4-0.6,0.4-0.4,0.9c0.2,0.3,0.4,0.6,0.3,1   c0,0.1,0.2,0.3,0.3,0.4C158.4,65.1,158.6,65,158.9,64.8z M150.3,45c0-0.1,0-0.2,0.1-0.2c-0.4-0.3-0.9-0.6-1.3-0.9   c-0.4,0.4-0.3,0.8-0.2,1.2c0,0.2,0.3,0.3,0.4,0.1C149.6,44.8,149.9,44.8,150.3,45z M155.9,40.5c0.3-0.6,0.8-0.9,0.5-1.6   c-0.4,0.2-0.7,0.4-1.1,0.7C155.5,39.8,155.7,40.1,155.9,40.5z M176.8,63.7c-0.1,0.6,0.2,1.1-0.1,1.7c0,0.1,0.1,0.2,0.2,0.4   c0.1-0.1,0.3-0.1,0.4-0.3c0.3-0.5-0.4-1-0.2-1.6c0,0-0.1-0.1-0.2-0.2C177,63.7,177,63.7,176.8,63.7z M141.9,61.6   c0.1-0.5,0.6-1.1-0.2-1.5c0.1-0.3,0.2-0.5,0.4-0.9c-0.3,0.3-0.6,0.5-0.8,0.8C141.3,60.6,142,61,141.9,61.6z M149.3,47.5   c-0.3,0.4-0.6,0.7-1.2,0.6c0,0-0.1,0.2-0.2,0.3c0.5-0.3,1.1,0.5,1.6-0.1C149.5,48.1,149.4,47.9,149.3,47.5z M136.4,52.3   c-0.2,0.3-0.3,0.6,0,0.7c0.1,0.1,0.3-0.1,0.5-0.2c0.1,0.2,0.2,0.3,0.3,0.6C137.3,52.3,137.3,52.3,136.4,52.3z M159.8,55.7   c-0.3,0.1-0.6,0.2-0.8,0.4c-0.1,0,0.1,0.4,0.2,0.6C160.1,56.3,160.1,56.3,159.8,55.7z M154.6,63.4c0,0-0.1,0-0.1,0.1   c0,0.3,0,0.7,0,1c1-0.9,1-0.9,0.8-1.6c-0.1,0.4-0.3,0.7-0.4,1.1c-0.1-0.2-0.1-0.2-0.2-0.3C154.7,63.6,154.7,63.5,154.6,63.4z    M144.4,63.3c0.4,0.9,0.4,0.9,1,0.7C145.2,63.2,145.1,63.1,144.4,63.3z M144.4,64.7c-0.1,0.7,0,0.9,0.7,1   C145.1,65,145.1,65,144.4,64.7z M164.4,63.3c-0.1-0.1-0.1-0.1-0.2-0.2c-0.2,0.1-0.5,0.2-0.7,0.4c-0.1,0.3-0.1,0.6,0.2,0.7   C164,64,164.2,63.6,164.4,63.3z M152.6,48.8c-0.4-0.6-0.6-0.6-1,0C152,49.1,152.3,49,152.6,48.8z M168.8,66.7   c0.1,0.3,0.3,0.5,0.4,0.7c0.3-0.3,0.7-0.5,0.4-0.8C169.4,66.2,169.2,66.6,168.8,66.7z M157.3,56c-0.4-0.2-0.6-0.4-0.8-0.6   c-0.3,0.3-0.3,0.3-0.2,0.7C156.5,56.1,156.8,56.1,157.3,56z M165.2,65c-0.3-0.4-0.7-0.4-1.1-0.3c-0.1,0.3-0.1,0.5,0.3,0.5   C164.6,65.1,164.9,65.1,165.2,65z M158.4,40c-0.2,0.8-0.2,0.8,0.4,1C158.7,40.6,159.1,40.1,158.4,40z M155.7,52.8   c0.3-0.3,0.4-0.5,0.2-0.8c-0.1-0.2-0.3-0.2-0.6,0C155.4,52.2,155.5,52.4,155.7,52.8z M158.1,36.8c-0.2,0.8-0.1,1,0.5,1   C158.4,37.4,158.3,37.2,158.1,36.8z M166.6,67.4c0.3-0.2,0.9-0.1,1.1-0.7C167.2,66.8,166.8,66.8,166.6,67.4z M152.1,44.5   c0.4-0.3,0.6-0.5,0.4-0.8c-0.1-0.2-0.1-0.5-0.5-0.3C152,43.7,152,44,152.1,44.5z M142.9,67.5c0.4,0.1,0.7,0.2,1,0.3   c0-0.2,0.1-0.3,0.1-0.6C143.6,67.5,143.3,66.9,142.9,67.5z M157.9,41.2c-0.8-0.1-1,0-1,0.5C157.2,41.5,157.5,41.4,157.9,41.2z    M149.1,52.9c0.1,0.4,0.1,0.6,0.1,0.8c0.2-0.1,0.3-0.2,0.6-0.3C149.5,53.2,149.4,53.1,149.1,52.9z M142.5,64.1c-0.1,0-0.1,0-0.2,0   c0,0.2,0,0.5-0.1,0.9C142.6,64.6,142.7,64.3,142.5,64.1z M153.4,42.7c-0.5,0.6-0.5,0.6-0.3,0.9C153.5,43.4,153.5,43.1,153.4,42.7z    M144.5,44.7c0-0.1,0-0.1,0-0.2c-0.1,0-0.4-0.2-0.4-0.1c-0.1,0.2-0.2,0.4-0.3,0.7C144.2,44.9,144.4,44.8,144.5,44.7z M156,51.2   c0.2-0.2,0.5-0.4,0.2-0.7C155.9,50.6,155.7,50.8,156,51.2z M156.8,64.1c0.1,0,0.1,0,0.2-0.1c-0.1-0.3,0.1-0.7-0.4-1   C156.7,63.4,156.7,63.7,156.8,64.1z M137.8,63.2c-0.1,0.3-0.2,0.6-0.4,1C138,63.8,138,63.8,137.8,63.2z M165,67   c-0.3,0.5,0,0.6,0.3,0.6c0,0,0.1-0.1,0.2-0.2C165.3,67.3,165.1,67.2,165,67z M143,62c-0.1-0.3-0.2-0.5-0.3-0.7   C142.4,61.7,142.4,61.7,143,62z M148,43.5c-0.1,0-0.1,0.1-0.2,0.1c0.1,0.1,0.1,0.3,0.2,0.4c0.1,0.1,0.2,0,0.5-0.1   C148.2,43.7,148.1,43.6,148,43.5z M140.1,52.5c0.1-0.2,0.2-0.3,0.2-0.4c0-0.1-0.1-0.2-0.2-0.3c-0.1,0.1-0.2,0.2-0.2,0.3   C139.9,52.2,140,52.3,140.1,52.5z M179.1,61c-0.4,0.4-0.4,0.4-0.2,0.8c0,0,0.1-0.1,0.1-0.1C179,61.5,179,61.3,179.1,61z    M133.9,57.5c0,0.4,0.1,0.5,0.1,0.8C134.3,58,134.3,58,133.9,57.5z M137.9,57.6c0.1,0.4,0.2,0.7,0.3,1c0.1,0,0.1,0,0.2-0.1   C138.2,58.2,138.3,57.9,137.9,57.6z M160.3,57.8c-0.1-0.3-0.2-0.6-0.2-0.8C159.9,57.3,159.8,57.6,160.3,57.8z M147.7,51.9   c0.2,0.2,0.3,0.3,0.5,0.5C148.4,51.8,148.4,51.8,147.7,51.9z M150.3,67.1c0.2-0.3,0.2-0.4,0.3-0.6c-0.2-0.1-0.3-0.2-0.5-0.3   C150.2,66.5,150.3,66.7,150.3,67.1z M142.8,63.8c0.5,0.2,0.5,0.2,0.6-0.3C143.2,63.6,143,63.7,142.8,63.8z M146,63.4   c0.5,0.3,0.5,0.3,0.8,0.1C146.4,63.3,146.4,63.3,146,63.4z M159.2,63.1c0,0.6,0,0.6,0.5,0.5C159.6,63.4,159.5,63.3,159.2,63.1z    M160.1,60.8c-0.3,0.5-0.3,0.6,0.2,0.9C160.2,61.4,160.2,61.1,160.1,60.8z M180.9,57.4c-0.2,0.2-0.3,0.3-0.4,0.5   C181,57.9,181,57.9,180.9,57.4z M139.4,50.8c-0.2-0.1-0.3-0.2-0.4-0.2c-0.1,0-0.1,0.1-0.2,0.2c0.1,0.1,0.2,0.2,0.3,0.2   C139.2,51,139.3,50.9,139.4,50.8z M154,47.9c-0.3-0.4-0.5-0.4-0.8-0.2C153.4,47.7,153.6,47.8,154,47.9z M141.3,36.7   c-0.2,0.6-0.2,0.6,0.3,0.6C141.5,37.1,141.5,37,141.3,36.7z M137.2,61.1c-0.1,0-0.1,0-0.2,0c0,0.2,0.1,0.3,0.1,0.5   c0.1,0,0.2,0,0.3-0.1C137.3,61.4,137.3,61.2,137.2,61.1z M179.6,60.7c0.1,0.2,0.2,0.4,0.3,0.7C180,61.1,180,60.8,179.6,60.7z    M153.7,40.9c0,0.2,0,0.4,0.1,0.6c0.2-0.1,0.3-0.2,0.6-0.4C154,41.1,153.9,41,153.7,40.9z M150.9,43.3c0.2,0.1,0.3,0.2,0.5,0.3   c0-0.3,0-0.4-0.1-0.6C151.1,43.1,151,43.2,150.9,43.3z M155.3,59c0.1,0,0.1,0,0.2,0.1c0-0.2,0.1-0.4,0.1-0.6c0,0-0.1-0.1-0.2-0.1   C155.4,58.6,155.4,58.8,155.3,59z M174.4,66.7c0,0.1-0.1,0.2-0.1,0.3c0.2,0.1,0.3,0.1,0.5,0.2c0,0,0.1-0.2,0.1-0.2   C174.7,66.8,174.5,66.7,174.4,66.7z M152.6,50.1c0.2,0.1,0.3,0.2,0.6,0.3c0-0.2,0-0.4,0-0.6C152.9,49.9,152.8,50,152.6,50.1z    M169.6,65.1c-0.1,0.1-0.2,0.2-0.2,0.3c0,0.1,0,0.2,0,0.5c0.1-0.3,0.2-0.4,0.3-0.5C169.7,65.3,169.6,65.2,169.6,65.1z M157.6,33   c0.1,0,0.1,0,0.2,0c0-0.1,0-0.3,0-0.4c-0.1,0-0.1,0-0.2,0C157.6,32.7,157.6,32.8,157.6,33z M142.6,59.1c0,0.2-0.1,0.4-0.1,0.7   C142.9,59.5,142.9,59.5,142.6,59.1z M149.7,52.9c0.1,0.1,0.1,0.1,0.2,0.2c0.1-0.1,0.2-0.3,0.2-0.4c0,0-0.1-0.1-0.1-0.1   C149.9,52.7,149.8,52.8,149.7,52.9z M153.8,57c0,0.2-0.1,0.3-0.1,0.3c0.1,0.1,0.2,0.1,0.3,0.2c0-0.1,0.1-0.2,0.1-0.2   C154,57.2,153.9,57.1,153.8,57z M156.2,52.7c0.4-0.1,0.4-0.1,0.2-0.5C156.3,52.4,156.2,52.6,156.2,52.7z M141.7,50.4   c0-0.1,0-0.1,0-0.2c-0.1,0-0.3,0.1-0.4,0.1c0,0.1,0,0.1,0,0.2C141.4,50.4,141.5,50.4,141.7,50.4z M156.8,57.4   c-0.1,0.2-0.1,0.4-0.1,0.6C157,57.9,157.2,57.7,156.8,57.4z M155.5,50.7c-0.2-0.1-0.3-0.2-0.4-0.2c-0.1,0-0.1,0.1-0.2,0.2   c0.1,0.1,0.2,0.2,0.3,0.2C155.3,51,155.4,50.8,155.5,50.7z M165.8,64.1c0-0.1,0.1-0.1,0.1-0.2c-0.1-0.1-0.2-0.2-0.3-0.2   c0,0.1-0.1,0.2-0.1,0.3C165.6,64,165.7,64,165.8,64.1z M137.9,51.9c-0.1,0-0.1,0-0.2,0c0,0.1-0.1,0.3-0.1,0.4c0.1,0,0.1,0,0.2,0   C137.8,52.2,137.9,52.1,137.9,51.9z M148.8,64.4c0,0.3,0,0.4-0.1,0.6C149.2,64.7,149.2,64.7,148.8,64.4z M152.1,67.6   c0.1,0,0.1,0,0.2,0c0-0.1,0-0.3,0-0.4c0,0-0.1,0-0.1,0C152.1,67.3,152.1,67.5,152.1,67.6z M155.7,63.8c0,0.3,0,0.4,0,0.7   C156.1,64.3,156.1,64.1,155.7,63.8z M144.5,35c-0.2,0.3-0.2,0.3,0.2,0.5C144.6,35.3,144.6,35.2,144.5,35z M139.6,55.3   c-0.1-0.4-0.2-0.6-0.6-0.3C139.2,55.1,139.4,55.2,139.6,55.3z M157.3,55c0,0-0.1-0.1-0.1-0.1c-0.1,0.1-0.2,0.1-0.3,0.2   c0,0,0.1,0.1,0.1,0.1C157.1,55.1,157.2,55.1,157.3,55z M155.9,54.9c0.1,0,0.1,0.1,0.2,0.1c0.1-0.2,0.2-0.4,0.3-0.6   c0,0-0.1,0-0.1-0.1C156.1,54.5,156,54.7,155.9,54.9z M144.3,47.3c0,0,0.1,0,0.1,0c0-0.2,0-0.3,0-0.5c0,0-0.1,0-0.1,0   C144.3,47,144.3,47.1,144.3,47.3z M151.8,42c-0.1,0.2-0.1,0.3-0.2,0.4c0.2,0,0.3,0.1,0.5,0.1C151.9,42.3,151.9,42.2,151.8,42z    M155.8,59.8c-0.1-0.2-0.1-0.3-0.2-0.5C155.3,59.7,155.3,59.7,155.8,59.8z M149.1,66.3C149.1,66.3,149.1,66.4,149.1,66.3   c0.2,0,0.2,0,0.3-0.1c0-0.1-0.1-0.1-0.1-0.2C149.2,66.1,149.1,66.2,149.1,66.3z M152,65.8c-0.1,0.1-0.1,0.2-0.1,0.3   c0,0,0.1,0.1,0.1,0.1c0.1-0.1,0.1-0.2,0.2-0.3C152.2,65.9,152.1,65.9,152,65.8z M150.8,66.2c0-0.1,0.1-0.1,0.1-0.2   c-0.1-0.1-0.2-0.1-0.3-0.2c0,0-0.1,0.1-0.1,0.1C150.6,66,150.7,66.1,150.8,66.2z M159.6,35.7c0,0-0.1-0.1-0.1-0.1   c-0.1,0.1-0.2,0.2-0.2,0.3c0,0,0.1,0.1,0.1,0.1C159.4,35.9,159.5,35.8,159.6,35.7z M150.1,63.2c0-0.1-0.1-0.1-0.1-0.2   c-0.1,0.1-0.2,0.2-0.3,0.3c0,0,0.1,0.1,0.1,0.1C149.8,63.4,150,63.3,150.1,63.2z M138.7,48.7c0,0-0.1,0-0.1-0.1   c-0.1,0.1-0.1,0.2-0.2,0.2c0.1,0,0.1,0.1,0.2,0.1C138.6,48.9,138.7,48.8,138.7,48.7z M142.1,49.2c0,0,0.1,0,0.1,0   c0-0.1,0-0.3,0-0.4c-0.1,0-0.1,0-0.1,0C142.2,48.9,142.2,49.1,142.1,49.2z M149.8,65.8c0-0.1,0-0.1,0.1-0.2c-0.2,0-0.3,0-0.5-0.1   c0,0,0,0.1,0,0.1C149.5,65.7,149.6,65.8,149.8,65.8z M139.4,49.4c0.1,0,0.1,0,0.2,0c0-0.1,0-0.2-0.1-0.4c0,0-0.1,0-0.1,0   C139.4,49.1,139.4,49.3,139.4,49.4z M147.3,42.7c0-0.1,0.1-0.1,0.1-0.2c-0.1-0.1-0.3-0.1-0.4-0.2c0,0.1-0.1,0.1-0.1,0.2   C147.1,42.5,147.2,42.6,147.3,42.7z M156.8,42.6c-0.1-0.1-0.2-0.2-0.3-0.3c-0.1,0.1-0.1,0.1-0.2,0.2c0,0,0.1,0.1,0.1,0.1   C156.5,42.7,156.6,42.6,156.8,42.6z M173.4,67.2c0,0,0.1,0,0.1,0c0-0.1-0.1-0.2-0.1-0.3c0,0-0.1,0-0.1,0   C173.3,67,173.4,67.1,173.4,67.2z M146,37c0,0.1,0,0.1,0,0.2c0.1-0.1,0.2-0.1,0.4-0.2c0,0,0-0.1,0-0.1C146.3,36.9,146.2,37,146,37z    M140.9,46.9c0-0.1-0.1-0.1-0.1-0.2c-0.1,0-0.1,0.1-0.2,0.1c0,0,0,0.1,0.1,0.1C140.8,47,140.9,47,140.9,46.9z M175.9,60.3   c0,0.1-0.1,0.1-0.1,0.2c0.1,0.1,0.2,0.2,0.4,0.2c0,0,0.1-0.1,0.1-0.1C176.2,60.5,176,60.4,175.9,60.3z M158.1,56.3   c0.1,0,0.1,0,0.2,0c0-0.1-0.1-0.3-0.1-0.4c0,0-0.1,0-0.1,0C158,56,158.1,56.1,158.1,56.3z M154.5,56.2c0,0-0.1,0-0.1,0   c0,0.1,0,0.2,0.1,0.3c0.1,0,0.1-0.1,0.2-0.1C154.6,56.4,154.6,56.3,154.5,56.2z M139.7,59.8c0,0-0.1,0.1-0.1,0.1   c0.1,0.1,0.1,0.2,0.2,0.3c0.1,0,0.1-0.1,0.2-0.1C139.8,60,139.8,59.9,139.7,59.8z M153.4,63.7c0-0.1,0.1-0.1,0.1-0.2   c-0.1,0-0.3-0.1-0.4-0.1c0,0,0,0.1,0,0.1C153.1,63.6,153.2,63.6,153.4,63.7z M146.4,50c-0.2-0.1-0.2-0.2-0.3-0.2   c0,0-0.1,0.1-0.1,0.1c0,0.1,0.1,0.2,0.2,0.2C146.2,50.1,146.3,50,146.4,50z M143.7,35.8c0,0-0.1,0-0.1,0c0,0.1,0.1,0.2,0.1,0.3   c0,0,0.1,0,0.1-0.1C143.8,36,143.7,35.9,143.7,35.8z M148.4,51.1c0,0,0-0.1,0-0.1c-0.1,0-0.3,0.1-0.4,0.1c0,0.1,0,0.1,0,0.2   C148.1,51.2,148.2,51.2,148.4,51.1z M161.1,64.3c0,0-0.1,0-0.1,0c0,0.1-0.1,0.2,0,0.3c0,0.1,0.1,0.1,0.2,0.3   C161.1,64.6,161.1,64.5,161.1,64.3z M137.1,63.2C137,63.2,137,63.3,137.1,63.2c0,0.2,0.1,0.3,0.2,0.4c0-0.1,0.1-0.1,0.1-0.2   C137.3,63.4,137.2,63.3,137.1,63.2z" /><path
       id="XMLID_1552_"
       fill="#699E5F"
       d="M215,66.5c-0.2,0.4-0.4,0.8-0.5,1.1c-0.1,0.3-0.4,0.4-0.7,0.4c-1.6,0-3.3,0.1-4.9,0.1   c-0.3,0-0.6-0.1-0.9-0.1c-0.1,0-0.3-0.1-0.4-0.1c-0.7,0.1-1.4-0.2-2.1-0.3c-0.5-0.1-1-0.3-1.5-0.5c-0.1,0-0.1-0.1-0.2-0.1   c-1.8-0.2-3.5-1.1-5-1.9c-0.6-0.3-1-0.9-1.6-1.3c-1-0.7-1.7-1.6-2.4-2.5c-0.9-1.1-1.3-2.4-1.9-3.6c-0.1-0.3-0.3-0.6-0.5-0.9   c-0.5-0.6-0.4-1.3-0.6-2c-0.1-0.3-0.1-0.7-0.3-1c-0.5-0.8-0.3-1.7-0.4-2.6c-0.1-1.2-0.2-2.4-0.2-3.6c0.1-1-0.2-2.1,0.1-3.1   c0-0.1,0-0.2,0-0.2c-0.2-1.7,0.3-3.4,0.6-5c0.4-1.9,1.1-3.7,2.2-5.3c0.3-0.5,0.7-0.8,1.1-1.3c0.4-0.4,0.7-0.9,1.1-1.3   c0.2-0.2,0.5-0.4,0.7-0.6c0.1-0.1,0.2-0.1,0.3-0.2c0.8-0.9,1.2-1.2,2.3-1.7c0.2-0.1,0.3-0.2,0.5-0.3c0.3-0.1,0.5-0.3,0.8-0.4   c0.5-0.3,1-0.5,1.5-0.8c0.3-0.2,0.6-0.7,1.1-0.3c0.9-0.2,1.9-0.1,2.8-0.6c0.5-0.4,1.1-0.4,1.7-0.3c0.2,0,0.4,0.1,0.5,0.1   c1-0.1,2-0.2,3-0.2c0.7,0,1.4,0.1,2.1,0.2c0.7,0.1,1.3,0.1,2,0.2c0.5,0.1,1.1,0.1,1.6,0.3c0.8,0.2,1.5,0.4,2.2,0.6   c0.9,0.3,1.8,0.6,2.8,0.9c0.2,0.1,0.5,0.1,0.7,0.2c0.5,0.5,1.1,0.7,1.7,0.9c0.8,0.3,1.5,0.9,2.2,1.3c0.3,0.2,0.4,0.6,0.3,0.9   c-0.4,1.2-0.8,2.4-1.2,3.7c-0.4,1.3-0.6,2.5-1,3.8c-0.1,0.3-0.2,0.7-0.4,0.9c-0.4,0.3-0.9,0.6-1.4,0.8c0,0-0.1,0.1-0.2,0   c-0.6-0.3-1.3,0.1-1.9-0.1c-0.5-0.2-0.9-0.4-1.1-0.9c-0.3-0.7-0.5-1.5-0.8-2.3c-0.1-0.2,0.1-0.5,0.1-0.7c-0.7,0-1.3-0.2-1.8-0.7   c-0.1-0.1-0.1-0.1-0.2-0.1c-1-0.4-2.1-0.8-3.2-1.1c-0.8,0.2-1.5-0.3-2.4,0c-0.4,0.1-0.9-0.2-1.2-0.1c-0.4,0.2-0.8,0.4-1.2,0.4   c-1,0.1-1.7,0.6-2.5,1.1c-1.1,0.7-1.7,1.7-2.2,2.8c-0.5,1.3-1.1,2.6-1,4c0,0.5,0,1.1-0.2,1.6c-0.3,1.2-0.2,2.5-0.1,3.8   c0.1,1.6,0.2,3.2,0.6,4.8c0.3,1.3,0.8,2.5,1.5,3.6c0.6,1,1.5,1.7,2.5,2.2c0.2,0.1,0.4,0.3,0.7,0.4c0.3,0.1,0.6,0.2,0.9,0.3   c0.2,0.1,0.4,0.1,0.5,0.1c0.1,0,0.3,0.1,0.4,0.1c1.6,0,3.2,0.5,4.7-0.1c0.6-0.2,1.2-0.3,1.7-0.6c1-0.6,2-1.2,2.4-2.4   c0.2-0.7,0.5-1.3,0.8-1.9c0.2-0.5,1.2-1.1,1.7-1c0.2,0,0.4,0,0.6,0.1c0.5,0.2,1,0.2,1.6,0.1c0.4-0.1,0.7,0.2,0.6,0.6   c-0.2,1.1,0.4,2.1,0.6,3.1c0.2,1,0.4,1.9,0.6,2.9c0,0.2,0.1,0.3,0.1,0.5c0.2,0.7,0.4,1.4,0.6,2.1c0.1,0.4-0.2,0.9-0.7,1.2   c-0.5,0.3-0.9,0.6-1.4,0.8c-0.7,0.3-1.4,0.6-2,0.9c-0.9,0.5-1.9,0.8-2.9,1.1c-0.7,0.2-1.5,0.4-2.3,0.5c-0.4,0.1-0.8,0-1.1-0.4   C215.5,67,215.3,66.8,215,66.5z M193.8,51.3c-0.4-0.2-0.8-0.3-1.2-0.5c-0.1,0-0.3,0.1-0.4,0.1c0.1,0.1,0.1,0.3,0.2,0.4   c0,0,0.2,0,0.2,0c0.4-0.1,0.4,0.2,0.4,0.4c0,0.1-0.2,0.3-0.1,0.4c0,0.2,0.2,0.3,0.3,0.4c0.2,0.1,0.2-0.1,0.2-0.3   c0-0.1,0.1-0.1,0.1-0.2c0,0,0.1,0,0.1,0.1c0,0.2,0.1,0.3,0.1,0.6c0.2-0.2,0.4-0.4,0.7-0.7C193.5,52.1,194,51.5,193.8,51.3z    M198.8,55.5c-0.1-0.1-0.1-0.3-0.2-0.3c-0.7,0-0.8-0.4-0.9-0.9c0-0.3-0.3-0.6-0.8-0.6c0.2,0.4,0.3,0.7,0.6,1   c0.3,0.4-0.1,0.8-0.1,1.1c-0.3,0.2-0.4,0.3-0.6,0.4c0.1,0.4,0.3,0.3,0.5,0.2C197.7,56,198.1,55.5,198.8,55.5z M220.2,64.1   c0.4-0.6-0.2-0.9-0.4-1.4c0.3-0.1,0.5-0.2,0.2-0.6c-0.2,0.2-0.4,0.3-0.5,0.6c-0.1,0.1-0.1,0.5,0,0.5   C219.9,63.3,219.9,63.8,220.2,64.1z M221.3,63.6c0,0.7,0,0.7,0.6,1.1C222,63.9,221.9,63.9,221.3,63.6z M212.1,66.9c0.3,0,0.7,0,1,0   c0-0.2,0-0.4,0.1-0.6C212.2,66.5,212.2,66.5,212.1,66.9z M195.8,43.6c0.1,0.4,0.1,0.8,0.2,1.4c0.4-0.5,0-1,0.5-1.2   c-0.1-0.1-0.1-0.3-0.2-0.3C196.2,43.5,196,43.6,195.8,43.6z M206.6,61.3c0.3-0.1,0.5-0.2,0.8-0.3c-0.1-0.2-0.3-0.4-0.4-0.6   C206.6,60.6,206.5,60.9,206.6,61.3z M195.1,36.7c-0.2,0.6-0.1,1,0.1,1c0.2-0.2,0.4-0.3,0.6-0.5C195.5,37.1,195.3,36.9,195.1,36.7z    M217.3,65.4c0.3-0.7,0.3-0.8-0.4-1.3C217,64.6,217.1,64.9,217.3,65.4z M218.3,59.7c-0.2,0.6-0.2,0.6,0.5,0.8   C218.6,60.1,218.5,59.9,218.3,59.7z M207.6,63.4c0.3-0.3,0.4-0.6,0.4-1C207.3,62.9,207.3,62.9,207.6,63.4z M197.4,59.2   c0.2,0.2,0.4,0.3,0.6,0.4c0.1-0.2,0.1-0.4,0.2-0.5C198,58.9,197.8,58.8,197.4,59.2z M195.5,53.8c-0.3-0.1-0.6-0.1-1-0.2   C194.6,54.1,194.6,54.1,195.5,53.8z M195.5,54.7c0.2,0.5,0.3,0.6,0.8,0.2C196,54.9,195.8,54.8,195.5,54.7z M223.1,62.8   c0.5,0.5,0.5,0.5,0.8,0C223.6,62.8,223.4,62.8,223.1,62.8z M214.7,63.2c0.2,0.3,0.4,0.4,0.7,0.3C215.1,63.1,215.1,63.1,214.7,63.2z    M196.3,59.2c0,0.1,0,0.1,0.1,0.2c0.2-0.1,0.4-0.2,0.6-0.3c0,0,0-0.2-0.1-0.2C196.6,58.8,196.5,59.1,196.3,59.2z M204,36.6   c0.1-0.4,0-0.6-0.4-0.8C203.4,36.3,203.9,36.3,204,36.6z M214.2,66.5c0.3-0.2,0.4-0.4,0.1-0.6c-0.1-0.1-0.2,0-0.4,0   C214,66.1,214.1,66.3,214.2,66.5z M200.4,62.3c-0.3,0.3-0.2,0.5,0,0.8c0.1-0.2,0.1-0.4,0.1-0.5C200.6,62.5,200.5,62.5,200.4,62.3z    M222.8,60.8c0.3-0.3,0.4-0.5,0-0.8C222.8,60.3,222.8,60.4,222.8,60.8z M219.5,60.1c0.1,0.3,0.1,0.5,0.2,0.8   C219.9,60.6,220.2,60.3,219.5,60.1z M213.7,34.2c0-0.1-0.1-0.1-0.1-0.2c-0.1,0.1-0.2,0.2-0.4,0.3c0,0.1,0.1,0.2,0.1,0.2   C213.5,34.3,213.6,34.2,213.7,34.2z M199.7,42.4c0.3-0.3,0.3-0.5-0.1-0.6C199.7,42,199.7,42.2,199.7,42.4z M203.6,64.2   c0.1,0,0.1,0.1,0.2,0.1c0-0.1,0.1-0.2,0.1-0.3c0-0.1-0.1-0.2-0.1-0.2c-0.1,0.1-0.2,0.1-0.2,0.2C203.5,64,203.5,64.1,203.6,64.2z    M205.6,64.5c0.1,0,0.1,0,0.2,0c0-0.2,0-0.3,0-0.5c0,0-0.1,0-0.1,0C205.6,64.2,205.6,64.4,205.6,64.5z M203.6,57.8c0,0,0-0.1,0-0.1   c-0.2,0-0.3,0-0.5,0c0,0.1,0,0.1,0,0.2C203.2,57.8,203.4,57.8,203.6,57.8z M196.5,55.8c-0.1,0-0.1,0.1-0.2,0.1   c0.1,0.1,0.1,0.3,0.2,0.4c0,0,0.1-0.1,0.1-0.1C196.5,56,196.5,55.9,196.5,55.8z M199.1,52c-0.2-0.1-0.3-0.2-0.5-0.4   C198.6,52,198.7,52.2,199.1,52z M214.3,61.3c-0.1,0.5,0,0.6,0.5,0.4C214.6,61.6,214.5,61.5,214.3,61.3z M203.9,62.9   c0.4-0.2,0.4-0.2,0.3-0.5c0,0-0.1,0-0.1-0.1C204,62.6,204,62.7,203.9,62.9z M222.8,61.8c0.1-0.1,0.1-0.1,0.2-0.2   c-0.1-0.1-0.3-0.1-0.4-0.2c0,0-0.1,0.1-0.1,0.1C222.6,61.6,222.7,61.7,222.8,61.8z M214.9,62.4c0.1,0,0.1,0,0.2,0   c0-0.1-0.1-0.3-0.1-0.4c0,0-0.1,0-0.1,0C214.9,62.1,214.9,62.2,214.9,62.4z M197.8,38.2c0.1-0.1,0.1-0.1,0.2-0.2   c-0.1,0-0.2-0.1-0.4-0.1c0,0-0.1,0.1-0.1,0.1C197.6,38,197.7,38.1,197.8,38.2z M194,44.4c-0.1,0-0.1-0.1-0.2-0.1   c-0.1,0.1-0.2,0.3-0.3,0.4c0,0,0.1,0.1,0.1,0.1C193.8,44.6,193.9,44.5,194,44.4z M200.6,46.5c0,0,0.1,0.1,0.1,0.1   c0.1-0.1,0.2-0.2,0.2-0.3c-0.1,0-0.2-0.1-0.2-0.1C200.8,46.3,200.7,46.4,200.6,46.5z M222.9,57c0.1-0.1,0.1-0.1,0.1-0.2   c0-0.1-0.1-0.1-0.2-0.1c0,0-0.1,0.1-0.1,0.1C222.8,56.9,222.8,56.9,222.9,57z M196.8,50.2c0-0.1,0.1-0.1,0.1-0.2   c-0.1-0.1-0.2-0.1-0.3-0.2c0,0-0.1,0.1-0.1,0.1C196.6,50,196.7,50.1,196.8,50.2z M202.9,65.5c0.1,0,0.1,0,0.2-0.1   c-0.1-0.1-0.1-0.3-0.2-0.4c0,0-0.1,0-0.1,0.1C202.8,65.2,202.9,65.4,202.9,65.5z M198.6,53.4c-0.1,0-0.1-0.1-0.2-0.1   c-0.1,0-0.1,0.1-0.2,0.1c0.1,0.1,0.1,0.1,0.2,0.2C198.5,53.6,198.5,53.5,198.6,53.4z" /><path
       id="XMLID_1479_"
       fill="#699E5F"
       d="M252.9,64.9c-0.2,0.7-0.7,1-1.4,1c-0.1,0.5-0.5,0.7-0.9,0.8c-0.4,0.1-0.7,0.3-1.1,0.5   c-0.5,0.3-1.1,0.3-1.6,0.5c-0.2-0.3-0.3-0.5-0.5-0.7c-0.1,0-0.1,0-0.2,0.1c0,0.2-0.1,0.5-0.1,0.7c-0.3,0.1-0.6,0.3-0.9,0.4   c-0.5,0.1-1.1,0.1-1.6,0.1c-0.4,0-0.7,0.1-1.1,0.1c-1,0-2.1,0-3.1,0c-0.5,0-0.5,0-0.7-0.5c0,0,0,0-0.1,0c-0.5,0.6-1.1,0.6-1.8,0.4   c-0.7-0.3-1.4-0.6-2.2-0.6c-0.2,0-0.5-0.1-0.7-0.2c-1.2-0.6-2.4-1.2-3.6-1.9c-0.5-0.3-0.9-0.7-1.3-1.2c-0.6-0.6-1.2-1.3-1.6-2   c-0.7-1.6-1.5-3.2-1.9-5c-0.5-2.2-0.8-4.4-0.8-6.7c-0.1-1.5,0.3-3.1,0.7-4.6c0.3-1.2,0.9-2.3,1.6-3.3c0.3-0.4,0.6-0.8,0.9-1.1   c0,0,0.1-0.1,0.1-0.1c0.1-0.7,0.8-1,1.3-1.4c0.9-0.7,1.7-1.3,2.7-1.9c0.6-0.3,1.2-0.5,1.9-0.7c0.5-0.2,0.7-0.1,1,0.4   c0.1,0.1,0.2,0.3,0.3,0.4c0.4-0.2,0.3-0.6,0.3-0.8c0-0.4,0.1-0.6,0.5-0.7c0.4-0.1,0.8-0.1,1.3-0.2c0.6-0.1,1.1,0,1.7-0.2   c1.2-0.3,2.5-0.4,3.7,0c0,0,0.1,0.1,0.2,0c0.6-0.5,1.3,0.1,1.9,0c0.6,0,1.2,0.3,1.9,0.5c0.5,0.1,0.9,0.2,1.4,0.3   c0.5,0.1,0.9,0.3,1.4,0.6c0.4,0.3,1,0.5,1.5,0.7c0.7,0.3,1.2,0.6,1.6,1.2c0.6,0.8,1.3,1.4,1.9,2.2c0.4,0.5,0.6,1,0.9,1.6   c0.1,0.1,0.1,0.2,0.1,0.3c0.8,1.7,1.3,3.4,1.4,5.2c0,1,0.2,1.9,0.3,2.9c0,0.2,0,0.3,0,0.5c-0.2,0-0.3,0-0.5,0.1c0,0.1,0,0.1,0,0.2   c0.5,0.7,0.3,1.5,0.2,2.3c0,0.1-0.1,0.3-0.1,0.4c0.1,1.6-0.5,3-1.1,4.3c-0.6,1.4-1.3,2.8-2.4,3.9c-0.1,0.1-0.2,0.2-0.3,0.4   C253.9,64.7,253.4,64.9,252.9,64.9c-0.1-0.2-0.1-0.4-0.2-0.6C252.5,64.7,252.7,64.8,252.9,64.9z M233.5,55.3   c0.1-0.1,0.1-0.3,0.3-0.5C233.3,54.9,233.5,55.2,233.5,55.3c-0.3,0.5-0.3,0.5,0.2,0.7c0,0.1-0.1,0.2-0.1,0.3c0,0.1,0,0.1,0,0.2   c0.2,0,0.3-0.1,0.6-0.1c-0.2-0.2-0.3-0.3-0.4-0.5C233.6,55.8,233.6,55.6,233.5,55.3z M231.8,47.1c-0.1,0.1-0.2,0.1-0.3,0.2   c0.1,0.1,0.1,0.2,0.2,0.2c0.2,0,0.3,0.1,0.4,0.3c0,0.2,0.2,0.3,0.3,0.5c0.2-0.4,0.3-0.6,0.4-0.9C232.4,47.3,232.1,47.2,231.8,47.1   c0.3-0.2,0.3-0.2-0.2-0.5C231.7,46.8,231.8,47,231.8,47.1z M247.1,50.2C247.1,50.2,247.2,50.2,247.1,50.2c-0.1-0.6-0.3-1.2-0.4-1.9   c-0.1-1.1-0.4-2-1-2.9c-0.4-0.8-1.2-1.4-2-1.5c-0.8-0.1-1.6-0.4-2.4-0.1c-0.7,0.2-1.4,0.4-2,0.8c-0.5,0.4-1.1,0.6-1.4,1.2   c-0.6,1.2-0.9,2.5-1,3.9c0,0.2,0.1,0.5,0.1,0.7c0,0.6-0.2,1.2,0,1.8c0.2,0.9,0.1,1.8,0.1,2.7c0,1.6,0.2,3.1,1.1,4.5   c0.6,1,1.3,2,2.7,1.8c0.1,0,0.2,0,0.3,0.1c0.7,0.3,1.5,0.2,2.2,0.1c1.5-0.3,2.6-1.1,3.1-2.6c0.4-1.3,0.8-2.7,0.7-4.1   c0-0.3,0.1-0.6,0.1-0.9c0-0.2,0.1-0.4,0.1-0.6C247.2,52.1,247.2,51.1,247.1,50.2z M253.8,43.4c0-0.1,0-0.1,0-0.2   c-0.4-0.1-0.7-0.1-1.1-0.2c-0.5-0.2-0.9,0-1.3,0.4c-0.2,0.2-0.6,0.2-0.9,0.3c0.1,0.1,0.1,0.4,0.2,0.4c0.3,0.1,0.6,0.2,0.8,0.2   c0.2,0,0.4-0.3,0.6-0.1c0.1,0.1,0,0.4,0,0.5c0.4,0,0.9,0.3,1.1-0.3c0-0.4-0.9-0.5-0.3-1C253.3,43.4,253.6,43.4,253.8,43.4z    M233.3,48.7c-0.1,0.5-0.2,0.8-0.3,1.2c0.8-0.2,1.3,0.3,1.9,0.5c-0.1-0.3-0.1-0.4-0.2-0.6c0-0.1-0.1-0.4-0.1-0.4   c0.4-0.4,0-0.7-0.1-1.2C234.3,48.5,234.2,49.4,233.3,48.7z M249.2,63.6c0.1-0.2,0.2-0.5,0.3-0.7c-0.3-0.4-0.6-0.8-0.8-1.2   c-0.1-0.4-0.3-0.4-0.7-0.4c-0.1,0.5-0.4,0.9-0.1,1.4C248.7,62.5,248.7,63.4,249.2,63.6z M241.1,65.9c-0.1-0.5,0.3-1-0.2-1.5   c-0.2,0.1-0.4,0.2-0.6,0.2c-0.2,0.1-0.4-0.1-0.5,0.2c1,0.4,1,0.4,0.9,1.5c0,0.2,0,0.4,0,0.6c0.6-0.2,0.9-0.5,1.2-1   C241.7,66,241.5,66,241.1,65.9z M250.9,64.2c-0.2-0.3-0.3-0.5-0.5-0.9c-0.1,0.6-0.5,0.6-0.9,0.6c-0.4,0-0.7,0.3-0.8,0.7   c0.4,0.1,0.7,0.1,1.1,0.2C250,64.2,250.5,64.4,250.9,64.2z M234.4,50.6c-0.1,0-0.1,0-0.2,0c-0.1,0.3-0.3,0.6-0.4,0.9   c-0.2,0.5-0.2,0.5,0.5,0.8c0.2-0.3,0.3-0.6,0.5-0.9C234.7,51.1,234.6,50.8,234.4,50.6z M237.2,62.7c-0.5,0-0.6,0.4-0.9,0.8   c0.7,0.2,0.8,0.7,0.7,1.4c0.3-0.2,0.4-0.3,0.5-0.3C237.9,63.8,236.9,63.4,237.2,62.7z M249.6,62.5c0.6-0.3,1.1-0.6,1.5,0   c0.3-0.1,0.6-0.3,1.1-0.5c-0.3-0.2-0.5-0.3-0.6-0.3c-0.5,0-1,0-1.5,0.1C249.7,61.9,249.5,62,249.6,62.5z M234,58   c-0.6,0.1-0.5,0.7-0.8,1.1c0.3,0.1,0.5,0.1,0.7,0.2C234.1,58.7,234.2,58.6,234,58z M253.1,42c-0.2,0.1-0.4,0.3-0.6,0.4   c0.7,0.4,1.4,0.2,2.1,0.2c-0.2-0.2-0.5-0.4-0.7-0.3C253.5,42.6,253.3,42.4,253.1,42z M241.8,63.9c0-0.1,0-0.2,0-0.3   c-0.4,0-0.9,0.1-1.3,0.1c0,0.1,0,0.3,0,0.4c0.1,0,0.3-0.1,0.4-0.1c0.2,0,0.3-0.1,0.5-0.1C241.5,64,241.6,64,241.8,63.9z M254.9,47   C254.9,47,254.8,47,254.9,47c-0.3,0.4-0.4,0.8-0.3,1.3c0.2-0.2,0.4-0.3,0.6-0.4C255,47.6,255,47.3,254.9,47z M236.8,61.2   c-0.3,0.5-0.6,0.8-0.3,1.3C237.2,62.1,237.2,62,236.8,61.2z M249.5,66.3c0.1-0.3,0.1-0.7,0.2-1C248.9,65.4,248.9,65.5,249.5,66.3z    M248.1,65c0.1-0.2,0.2-0.3,0.2-0.4c0-0.4-0.2-0.7-0.8-0.9C247.8,64.2,247.9,64.5,248.1,65z M254.3,50.8c0,0.5,0.3,0.7,0.6,1.1   c0-0.5,0-0.8,0-1.2C254.7,50.7,254.6,50.8,254.3,50.8z M243.2,63.5c0.5-0.9,0.5-1,0-1.3C243.2,62.6,243.2,63,243.2,63.5z    M237.7,60.7c0.3,0.2,0.4,0.3,0.8,0.6c0-0.5,0-0.8-0.1-1c-0.1,0-0.1-0.1-0.2-0.1C238,60.3,237.9,60.5,237.7,60.7z M239.4,67   C239.4,67,239.4,67,239.4,67c0.4,0,0.6-0.2,0.9-0.3c-0.1-0.2-0.1-0.3-0.3-0.7C239.8,66.4,239.6,66.7,239.4,67z M252.5,55.2   c0.2-0.2,0.4-0.4,0.4-0.5c0-0.2-0.1-0.4-0.3-0.3c-0.1,0-0.3,0-0.5-0.1C252.2,54.6,252.3,54.8,252.5,55.2z M236.2,64.3   c-0.1-0.1-0.3-0.2-0.6-0.4c0.1,0.4-0.4,0.7,0,1.1C235.9,64.8,236,64.6,236.2,64.3z M238.7,65.3c0.1,0.6,0.2,0.8,0.6,0.9   c0.2,0,0.4,0,0.3-0.3C239.3,65.7,239,65.5,238.7,65.3z M230.3,61c0.1,0.6,0.2,0.8,0.5,0.7c0.1-0.1,0.1-0.3,0.2-0.5   C230.8,61.2,230.6,61.1,230.3,61z M255.5,52c-0.1,0-0.1,0-0.2,0.1c0,0.9,0,0.9,0.7,1.2c0.2-0.5-0.4-0.2-0.4-0.5   C255.6,52.5,255.6,52.3,255.5,52z M250.7,60.7c0.4,0.4,0.4,0.4,1,0.1C251.5,60.7,251.2,60.4,250.7,60.7z M235.8,54.3   c0.1-0.5-0.2-0.8-0.5-1C235.3,53.7,235.2,54.2,235.8,54.3z M227.9,54.9c-0.3,0.1-0.4,0.2-0.8,0.4c0.4,0.1,0.6,0.2,0.9,0.3   C227.9,55.3,227.9,55.1,227.9,54.9z M237.8,66.3c0.2,0.1,0.4,0.2,0.5,0.3c0.1-0.1,0.2-0.3,0.2-0.4c0,0-0.1-0.1-0.1-0.2   C238.3,66.1,238.1,66.2,237.8,66.3z M250.6,42.2c0.3-0.4,0.3-0.7,0-1C250.3,41.5,250.4,41.8,250.6,42.2z M228.1,53   c-0.5,0.3-0.5,0.5-0.3,0.7c0.1,0.1,0.2,0,0.3,0.1C228.1,53.5,228.1,53.3,228.1,53z M241.1,62.7c-0.5,0.2-0.5,0.4-0.2,0.7   c0.1,0.1,0.3,0,0.4,0C241.2,63.1,241.2,62.9,241.1,62.7z M240.5,41.2c0.4-0.1,0.6-0.1,0.8-0.1c0-0.1,0-0.1,0-0.2   c-0.2-0.1-0.4-0.2-0.6-0.3C240.7,40.7,240.7,40.9,240.5,41.2z M253.1,62.8c-0.1-0.1-0.2-0.3-0.3-0.3c-0.1,0-0.2,0.1-0.3,0.2   c0.1,0.1,0.2,0.2,0.3,0.3C252.8,63.1,253,62.9,253.1,62.8z M256.2,48.7c-0.3,0-0.6,0.1-0.9,0.1C255.7,49.2,255.8,49.2,256.2,48.7z    M243.9,43c0-0.3-0.1-0.6-0.1-0.8c-0.1,0-0.1,0-0.2,0C243.6,42.5,243.2,42.8,243.9,43z M252,59.8c0.2-0.3,0.2-0.4,0.3-0.6   c-0.1-0.1-0.2-0.1-0.5-0.2C251.9,59.3,252,59.4,252,59.8z M232.7,60.1c-0.3,0.2-0.2,0.4,0,0.7C233,60.5,233.1,60.3,232.7,60.1z    M255,43.3c-0.1,0-0.1,0-0.2,0c0,0.2,0,0.4,0,0.6c0.1,0,0.1,0,0.2,0C255,43.7,255,43.5,255,43.3z M236.2,47   c0.1-0.4,0.1-0.4-0.2-0.5C236.1,46.7,236.2,46.8,236.2,47z M228.4,47.1c-0.3-0.1-0.4,0-0.4,0.3c0,0.1,0.1,0.2,0.2,0.4   C228.3,47.5,228.3,47.4,228.4,47.1z M227.2,48.3c0.1-0.2,0.2-0.3,0.2-0.4c0-0.1-0.1-0.2-0.2-0.3c-0.1,0.1-0.2,0.2-0.2,0.2   C227,48,227.1,48.1,227.2,48.3z M234,39c0.1,0.2,0.2,0.5,0.6,0.4C234.5,39,234.3,38.9,234,39z M250.8,58.9c0,0.1-0.1,0.1-0.1,0.2   c0.1,0.1,0.3,0.1,0.4,0.2c0-0.1,0.1-0.2,0.1-0.3C251,58.9,250.9,58.9,250.8,58.9z M230.3,60.5c0.1,0.1,0.2,0.2,0.3,0.2   c0.1,0,0.2-0.1,0.2-0.2c0-0.1-0.1-0.2-0.1-0.2C230.5,60.3,230.4,60.4,230.3,60.5z M239.8,64.2c0.1,0,0.1,0,0.2,0   c0.1-0.2,0.1-0.4-0.2-0.6C239.8,63.8,239.8,64,239.8,64.2z M241.6,67.7c0,0,0.1,0,0.1,0c0-0.2,0.1-0.4,0.1-0.6c0,0-0.1,0-0.1,0   C241.7,67.3,241.7,67.5,241.6,67.7z M238.8,63.1c0,0.2-0.1,0.3-0.2,0.6C239,63.6,238.9,63.4,238.8,63.1z M236.4,57.3   c-0.1-0.1-0.2-0.1-0.2-0.2c0,0-0.1,0.1-0.1,0.2c0,0.1,0.1,0.1,0.2,0.2C236.3,57.5,236.4,57.4,236.4,57.3z M231.2,57.8   c0.1-0.2,0.4-0.3,0-0.6C231.2,57.4,231.2,57.6,231.2,57.8z M254.9,52.9c0-0.1-0.1-0.1-0.1-0.2c-0.1,0.1-0.2,0.2-0.4,0.3   c0,0,0.1,0.1,0.1,0.1C254.7,53,254.8,53,254.9,52.9z M230,51.8c-0.1,0-0.1-0.1-0.2-0.1c-0.1,0.1-0.1,0.3-0.2,0.4   c0,0,0.1,0.1,0.1,0.1C229.9,52,230,51.9,230,51.8z M233.7,50.9c0.1,0,0.1,0,0.2,0c0-0.2,0-0.4,0-0.6c-0.1,0-0.1,0-0.2,0   C233.7,50.5,233.7,50.7,233.7,50.9z M232.5,49.8c0,0,0.1,0,0.1,0c0-0.2-0.1-0.3-0.1-0.5c0,0,0,0,0,0   C232.5,49.4,232.5,49.6,232.5,49.8z M232,61.2c-0.3-0.1-0.4-0.1-0.4-0.1c-0.1,0-0.2,0.1-0.2,0.2c0,0,0,0.1,0.1,0.1   C231.5,61.3,231.7,61.3,232,61.2z M235.4,58.4c-0.1,0-0.1,0-0.2,0.1c0.1,0.2,0.1,0.4,0.2,0.6c0.1,0,0.1,0,0.2-0.1   C235.5,58.8,235.4,58.6,235.4,58.4z M230.9,63c0,0,0.1,0,0.1-0.1c-0.1-0.1-0.1-0.2-0.2-0.4c-0.1,0-0.1,0.1-0.2,0.1   C230.7,62.7,230.8,62.8,230.9,63z M232.5,43.3c0,0,0.1,0,0.1,0c0-0.1,0-0.3,0-0.4c0,0-0.1,0-0.1,0C232.5,43,232.5,43.2,232.5,43.3z    M254.5,43.2c0,0-0.1,0-0.1,0c0,0.1-0.1,0.2-0.1,0.3c0.1,0,0.1,0,0.2,0.1C254.4,43.5,254.4,43.3,254.5,43.2z M246.5,44.7   c-0.1,0-0.1,0-0.2,0c0,0.1-0.1,0.2-0.1,0.3c0,0,0.1,0,0.1,0.1C246.4,44.9,246.5,44.8,246.5,44.7z M235,62c-0.4,0.1-0.4,0.1-0.1,0.4   C234.9,62.3,235,62.2,235,62z M253.8,54.8c-0.1,0-0.1,0-0.2-0.1c0,0.1-0.1,0.3-0.1,0.4c0.1,0,0.1,0,0.2,0.1   C253.7,55,253.7,54.9,253.8,54.8z M252.1,55.1c0,0-0.1,0-0.1,0c0,0.1,0,0.3,0.1,0.4c0,0,0,0,0.1,0   C252.1,55.4,252.1,55.2,252.1,55.1z M237,65.9c0.3-0.2,0.4-0.3,0.1-0.6C237,65.5,237,65.7,237,65.9z M228,50c0,0-0.1,0-0.1,0   c0,0.1,0,0.3-0.1,0.4c0,0,0.1,0,0.1,0C228,50.3,228,50.1,228,50z M233.4,50.4c-0.1-0.1-0.1-0.1-0.2-0.2c-0.1,0.1-0.1,0.1-0.2,0.2   c0,0,0.1,0.1,0.1,0.1C233.2,50.5,233.3,50.4,233.4,50.4z M238.9,61.8c0.1,0,0.1,0,0.2,0c0-0.1-0.1-0.3-0.1-0.4c0,0-0.1,0-0.1,0   C238.9,61.5,238.9,61.6,238.9,61.8z M234.9,64.9c0,0,0-0.1,0-0.1c-0.1-0.1-0.2-0.1-0.4-0.3c0.1,0.2,0.1,0.3,0.2,0.3   C234.8,64.8,234.9,64.8,234.9,64.9z M243.9,64.8c0.1,0,0.1,0,0.2,0.1c0-0.1,0.1-0.3,0.1-0.4c-0.1,0-0.2,0-0.3-0.1   C243.9,64.5,243.9,64.6,243.9,64.8z" /><path
       id="XMLID_1442_"
       fill="#699E5F"
       d="M108,58.4c0.5,0.4,0.4,0.8,0.4,1.3c0,1.3,0,2.6,0,3.8c0,0.7-0.2,1.2-0.8,1.5   c-0.7,0.4-1.2,1-1.9,1.4c-0.9,0.5-1.8,0.9-2.8,1.1c-0.6,0.1-1.2,0.5-1.8,0.6c-0.5,0.1-1.1,0.3-1.7,0.3c-1.1,0.1-2.2,0.2-3.3,0.4   c-0.1,0-0.2,0-0.3,0c-0.8-0.1-1.6-0.2-2.4-0.2c-0.2,0-0.4-0.1-0.6-0.1c-0.9,0.1-1.8-0.1-2.7-0.4c-0.9-0.3-1.9-0.3-2.8-0.8   c-1.3-0.7-2.6-1.4-3.7-2.4c-0.3-0.3-0.4-0.6-0.1-1c0.2-0.2,0.2-0.6,0.2-0.8c-0.1-0.3-0.5-0.4-1-0.3c-0.7,0.2-0.8,0.1-1.1-0.5   c-0.7-1.3-1.1-2.6-1.2-4.1c-0.1-1.1-0.3-2.1-0.3-3.3c0-1.1,0-2.2-0.1-3.4c0-0.3-0.2-0.6-0.2-0.9c0-0.9,0.1-1.8,0.2-2.7   c0.1-0.8,0.3-1.6,0.4-2.4c0.2-1.2,0.8-2.3,1.5-3.3c0.1-0.2,0.3-0.4,0.4-0.6c0.6-1,1.5-1.7,2.4-2.4c0.4-0.2,0.7-0.5,1-0.8   c0.1-0.1,0.3-0.2,0.4-0.3c0.6-0.3,1.1-0.5,1.7-0.8c0.7-0.4,1.5-0.5,2.2-0.6c0.8-0.1,1.7-0.3,2.5-0.4c0.2,0,0.4,0,0.6,0   c0.4,0,0.9-0.1,1.3-0.2c0.3,0,0.7-0.1,1,0c0.6,0.1,1.2,0.2,1.7,0.3c0.2,0,0.3,0.1,0.5,0.1c0.8-0.2,1.5,0.2,2.2,0.3   c0.2,0,0.5,0.1,0.7,0.1c0.1,0,0.3,0,0.4,0.1c0.6,0.5,1.4,0.6,2.1,0.9c0.7,0.3,1.5,0.5,2,1.2c0.3,0.4,0.7,0.6,1,1   c0.5,0.6,0.9,1.2,1.3,1.8c0.8,1.1,1.1,2.4,1.3,3.7c0.2,0.7,0.1,1.5,0.1,2.2c0,0.9,0,1.8-0.1,2.6c0,0.3-0.1,0.7-0.2,1   c0,0.1-0.1,0.2-0.1,0.3c0.3,0.5,0,1-0.1,1.5c-0.1,0.3-0.1,0.5-0.2,0.8c-0.2,0.3-0.3,0.7-0.6,0.8c-0.5,0.2-1,0.3-1.6,0.3   c-0.8,0.1-1.7,0-2.5,0c-0.2,0-0.5,0.1-0.6,0c-0.9-0.3-1.8-0.2-2.7-0.2c-1,0-1.9,0-2.9,0c-0.7,0-1.4,0-2.2,0c-0.8,0-1.6,0-2.4,0   c-0.8,0-1.6,0.1-2.4,0.2c-0.5,0.1-0.6,0.4-0.4,0.9c0.1,0.6,0.2,1.1,0.3,1.7c0,0.1,0,0.2-0.1,0.3c0.2,0.1,0.4,0.1,0.5,0.2   c0.8,1.2,2,2,3.4,2.5c0.5,0.1,0.9,0.2,1.4,0.3c0.5,0.1,1,0,1.4,0.2c0.4,0.1,0.7,0.1,1,0c0.5-0.2,1-0.2,1.5-0.2c0.1,0,0.2,0.1,0.2,0   c0.7-0.5,1.6-0.3,2.4-0.5c0.6-0.2,1.2-0.5,1.8-0.7c0.2-0.1,0.3-0.2,0.4-0.2c1.1-0.3,2.1-0.7,3.2-1.2   C107.6,58.5,107.8,58.5,108,58.4z M90.5,52.6c-0.3,0.2-0.4,0.3,0,0.6C90.5,52.9,90.5,52.8,90.5,52.6c0.2,0,0.5,0.1,0.6-0.2   C90.8,52.3,90.6,52.3,90.5,52.6z M93.4,43.6c-0.1,0.1-0.1,0.4-0.4,0.4c-0.4,0-0.7,0.4-1,0.6c-0.1,0.1-0.2,0.3-0.3,0.4   c-0.8,0.6-1,1.4-1.3,2.3c-0.1,0.3-0.1,0.6-0.2,0.8c-0.2,0.6-0.1,0.9,0.5,1c0.7,0.1,1.3,0.2,2,0c0.8-0.2,1.7-0.1,2.5,0   c0.8,0,1.5,0,2.3,0.1c0.6,0.1,1.3,0,1.9,0c0.7,0,1-0.3,1-0.9c-0.1-0.5,0.1-0.8,0.2-1.1c-0.2-0.5-0.4-0.9-0.4-1.3   c-0.2-1.1-1-1.6-1.9-2.1c-0.4-0.2-0.9-0.4-1.4-0.4c-0.5-0.1-1.1,0-1.7,0.1C94.7,43.5,94.1,43.5,93.4,43.6z M101.2,63.4   c-0.7,0.4-0.7,0.5-0.1,1c0.7-0.3,1.4-0.1,2-0.1c-0.3-0.3-0.3-0.3-0.7-0.3C101.9,64,101.5,63.8,101.2,63.4z M94.7,62.7   c0-0.3,0-0.5-0.1-0.8c-0.8-0.1-0.8-0.1-1.1,0.4C94.1,62.1,94.4,62.2,94.7,62.7z M102.9,65.2c0.1,0.4-0.3,0.9,0.3,1.2   C103.4,65.7,103.4,65.6,102.9,65.2z M92.8,65.5c0.1-0.2,0.2-0.3,0.3-0.4c0.1-0.1,0.2-0.1,0.4-0.2c-0.5-0.2-0.9-0.2-1.2,0.2   C92.5,65.3,92.7,65.4,92.8,65.5z M91.6,62.4c0-0.4,0-0.6,0.1-1c-0.3,0.3-0.6,0.4-0.9,0.7C91.1,62.2,91.3,62.3,91.6,62.4z M104,61.6   c0.1,0.4,0.2,0.6,0.3,0.9C104.3,62.2,104.8,61.8,104,61.6z M97,64.5c-0.1-0.5-0.4-0.4-0.7-0.5C96.3,64.6,96.6,64.5,97,64.5z    M96.6,62.1c-0.1,0-0.1,0.1-0.2,0.1c0.1,0.2,0.2,0.5,0.4,0.8C97.2,62.4,96.6,62.4,96.6,62.1z M82.8,59.8c0.1,0,0.2,0,0.3,0   c0-0.2-0.1-0.5-0.1-0.7c-0.1,0-0.1,0-0.2,0C82.8,59.3,82.8,59.5,82.8,59.8z M101.1,48.3c0.2,0.3,0.3,0.5,0.4,0.7   C101.6,48.4,101.6,48.4,101.1,48.3z M86,61.7c-0.3,0.3-0.4,0.4-0.6,0.5c0.2,0.1,0.4,0.1,0.6,0.2C86,62.2,86,62.1,86,61.7z    M103.7,40.9c0.1,0,0.2-0.1,0.3-0.1c-0.1-0.2-0.1-0.3-0.2-0.5c-0.1,0-0.3,0.1-0.3,0.1C103.5,40.5,103.6,40.7,103.7,40.9z    M84.9,61.9c-0.1,0.1-0.3,0.2-0.3,0.3c0,0.1,0.1,0.3,0.2,0.3c0.1,0,0.2-0.1,0.3-0.2C85,62.2,85,62.1,84.9,61.9z M100,62.7   c0,0.3,0,0.6,0,0.9C100.4,63.3,100.2,63,100,62.7z M103.2,53.2c0-0.1-0.1-0.1-0.1-0.2c-0.1,0.1-0.3,0.1-0.4,0.2   c0.1,0.1,0.1,0.2,0.1,0.2C103,53.4,103.1,53.3,103.2,53.2z M101.8,52.6c-0.5-0.3-0.5,0-0.6,0.3c0,0,0,0.1,0.1,0.1   C101.4,52.9,101.6,52.8,101.8,52.6z M94.3,66.1c0.1-0.3,0.2-0.5,0.3-0.8C94.1,65.5,94,65.6,94.3,66.1z M107,48.5   c0.2-0.1,0.3-0.2,0.5-0.4c-0.3,0-0.5,0-0.7,0C106.8,48.2,106.9,48.3,107,48.5z M88.6,64.1c0.1,0,0.1,0.1,0.2,0.1   c0.2-0.1,0.3-0.3,0.2-0.8C88.8,63.7,88.7,63.9,88.6,64.1z M87.7,64.1c-0.3,0.4-0.3,0.4-0.1,0.8C87.6,64.5,87.7,64.3,87.7,64.1z    M106.6,45.5c0.1-0.2,0.2-0.4,0.2-0.4c-0.1-0.1-0.2-0.1-0.5-0.3C106.4,45.1,106.5,45.2,106.6,45.5z M95.1,66.2c0,0,0.1-0.1,0.1-0.1   c-0.1-0.1-0.2-0.3-0.3-0.4c0,0-0.1,0.1-0.1,0.1C94.9,65.9,95,66.1,95.1,66.2z M82.6,54.4c0.1,0,0.1-0.1,0.2-0.1   c-0.1-0.1-0.1-0.2-0.2-0.4c-0.1,0-0.2,0.1-0.2,0.1C82.4,54.2,82.5,54.3,82.6,54.4z M107.1,47.1c0,0,0.1,0,0.1,0c0-0.1,0-0.3,0-0.4   c-0.1,0-0.1,0-0.2,0C107.2,46.9,107.2,47,107.1,47.1z M100,61.9c0,0-0.1,0.1-0.1,0.1c0.1,0.1,0.2,0.2,0.3,0.3c0,0,0.1-0.1,0.2-0.1   C100.2,62.1,100.1,62,100,61.9z M93.8,63.6C93.9,63.6,93.9,63.6,93.8,63.6c0.1-0.1,0.2-0.3,0.2-0.4c0,0-0.1,0-0.1,0   C93.9,63.3,93.9,63.4,93.8,63.6z M107.2,49.3c0,0,0.1,0.1,0.1,0.1c0.1-0.1,0.2-0.2,0.3-0.3c0,0-0.1-0.1-0.1-0.1   C107.4,49.1,107.3,49.2,107.2,49.3z M99.8,41.4c0.1-0.1,0.2-0.2,0.2-0.3c0,0-0.1-0.1-0.1-0.1c-0.1,0-0.2,0.1-0.2,0.2   C99.6,41.1,99.7,41.2,99.8,41.4z M106.1,43.1c-0.1,0-0.2-0.1-0.2-0.1c-0.1,0-0.1,0.1-0.2,0.1c0,0.1,0.1,0.2,0.1,0.1   C105.9,43.2,106,43.2,106.1,43.1z M84.8,46.1C84.7,46.1,84.7,46.1,84.8,46.1c-0.1,0-0.2,0-0.2,0c0,0.1,0,0.1,0.1,0.2   C84.7,46.3,84.7,46.2,84.8,46.1z M99.9,64.5c-0.1-0.1-0.1-0.2-0.1-0.2c-0.1,0-0.2,0.1-0.2,0.2c0,0,0.1,0.2,0.1,0.2   C99.7,64.6,99.8,64.5,99.9,64.5z M107.5,61.2c0-0.1,0-0.1,0.1-0.2c-0.1,0-0.3,0-0.4,0c0,0,0,0.1,0,0.1   C107.3,61.2,107.4,61.2,107.5,61.2z M96.1,52.7c0,0,0.1,0,0.1,0c0.1-0.2,0.1-0.3,0.2-0.5c0,0-0.1,0-0.1,0   C96.2,52.4,96.2,52.5,96.1,52.7z" /><path
       id="XMLID_1378_"
       fill="#699E5F"
       d="M294.5,67.2c-0.1,0.1-0.2,0.3-0.3,0.4c-1.1,0.3-2.2,0.6-3.4,0.4c0,0-0.1,0-0.1,0   c-0.9,0.1-1.8,0.1-2.7,0.2c-1.1,0.2-2.2,0.1-3.2-0.4c-0.1,0-0.2,0-0.3,0c-0.6,0-1.2-0.1-1.8-0.1c-0.2,0-0.5-0.2-0.7-0.2   c-0.6-0.3-1.2-0.6-1.8-0.8c-0.7-0.2-0.9-0.5-0.9-1.1c0-0.1,0-0.3-0.1-0.4c-0.2,0-0.3,0-0.4,0c-0.7,0.3-1.2-0.1-1.7-0.6   c-0.3-0.3-0.5-0.5-0.8-0.8c-0.3-0.4-0.6-0.8-0.8-1.2c-0.3-0.6-0.6-1.2-0.9-1.8c-0.2-0.3-0.1-0.7-0.4-1.1c-0.3-0.3-0.3-0.8-0.4-1.2   c-0.2-0.7-0.4-1.4-0.6-2.1c0-0.1-0.1-0.2-0.1-0.3c0.3-1.4-0.1-2.8-0.2-4.2c0-0.5,0.1-1,0.1-1.4c0-0.5,0.1-1,0.2-1.4   c0.2-1,0.4-2,0.7-3c0.4-1.2,0.9-2.4,1.3-3.5c0.1-0.2,0.3-0.3,0.4-0.4c0.3-0.4,0.6-0.8,0.9-1.1c0.1-0.2,0.2-0.4,0.4-0.5   c0.6-0.2,0.9-0.8,1.4-1.2c0.6-0.5,1.1-0.9,1.8-1c0.5-0.1,0.9-0.5,1.4-0.7c0.7-0.2,1.4-0.4,2.2-0.5c0.6-0.1,1.3-0.3,1.9-0.3   c0.9-0.1,1.7,0.1,2.6-0.2c0.9-0.2,1.8,0.3,2.7,0c1.1,0.2,2.1,0.5,3.2,0.7c0.7,0.1,1.3,0.3,1.9,0.6c0.6,0.2,0.9,0.5,0.8,1.2   c0,0.1,0,0.2,0.1,0.4c0.2-0.1,0.3-0.1,0.4-0.2c0.3-0.2,0.6-0.2,0.9,0c0.4,0.2,0.7,0.5,1,0.8c0.4,0.3,0.8,0.7,1.2,1.1   c0.6,0.5,0.9,1.2,1.2,1.9c0.8,1.7,1,3.6,1,5.4c0,0.5-0.1,1-0.2,1.4c0,0.1-0.1,0.3-0.1,0.4c0,0.5,0.3,0.9,0.1,1.3   c-0.1,0.4-0.3,0.8-0.3,1.3c0,0.8-0.5,1.4-0.9,2c-0.1,0.1-0.3,0.3-0.5,0.3c-1.4,0-2.8,0.3-4.2,0.1c-1.2-0.2-2.4-0.2-3.5,0   c-0.4,0.1-0.7,0-1.1,0c-1.1,0-2.2,0-3.3,0c-0.9,0-1.8-0.1-2.7-0.1c-0.6,0-1.3,0-1.9,0c-0.4,0-0.6,0.2-0.5,0.6c0,0.4,0,0.9,0.1,1.3   c0.2,0.9,0.6,1.8,1.2,2.5c0.4,0.5,0.9,0.9,1.5,1.2c0.9,0.4,1.9,0.7,3,0.8c1.3,0.1,2.5,0.1,3.8-0.2c1.3-0.2,2.5-0.5,3.8-0.9   c0.7-0.2,1.4-0.5,2.1-0.8c0.6-0.3,1.2-0.6,1.7-0.8c0.8-0.4,1.5,0,1.5,1c0,1,0,2,0,3.1c0,0.3-0.1,0.6-0.2,0.9c0,0.1-0.2,0.2-0.2,0.4   c-0.2,1.3-1.1,1.8-2.2,2.3c-0.3,0.1-0.5,0.2-0.8,0.4c-0.9,0.5-1.9,0.9-3,1.1c-0.2,0-0.4,0.1-0.6,0.2   C294.8,67.5,294.6,67.5,294.5,67.2z M277.5,45.4c0.2-0.5,0.2-0.5-0.1-0.8C277.5,44.9,277.5,45.2,277.5,45.4   c-0.2,0.2-0.1,0.4,0.2,0.5c0-0.1,0-0.2,0-0.3C277.7,45.5,277.6,45.5,277.5,45.4z M295.1,52.4L295.1,52.4c0.1,0.2,0.3,0.4,0.5,0.6   c-0.2,0.3-0.3,0.7,0,1.2c0.2-0.7,0.8-1.2,0.3-2c-0.3-0.6-0.6-1.3-1.3-1.6c-0.1,0-0.2,0.1-0.4,0.1c-0.2,0-0.4-0.1-0.4-0.2   c-0.1-0.1,0-0.4,0-0.5c0.7-0.4,0.4-1.1,0.6-1.7c-1-0.1-0.3,0.7-0.6,1c-0.4,0.1-0.8,0.2-1.1,0.3c0.1,0.5,0.1,0.5-0.2,0.9   c-0.1-0.2-0.1-0.3-0.2-0.4c-0.5,1.1-0.2,2,0.7,2.3c0,0.2,0,0.4,0,0.5c0.4,0.1,0.7,0.3,0.9,0.3c0.3,0,0.6-0.1,0.9-0.2   C295.1,52.8,294.6,52.5,295.1,52.4z M293.5,48.7c0.1-0.3,0.1-0.6,0.2-0.9c0-0.2,0-0.5,0.1-0.7c0.1-0.7,0-1.4-0.4-2.1   c-0.6-1.1-1.5-1.5-2.5-2c-0.1,0-0.3-0.1-0.4,0c-0.4,0.2-0.8,0.1-1.2,0c-0.4-0.1-0.8-0.1-1.2,0c-0.4,0.1-0.8,0.2-1.2,0.4   c-0.8,0.4-1.6,0.7-2.2,1.4c-0.8,1-1.2,2.2-1.4,3.4c0,0.3,0,0.5,0.4,0.5c0.5,0,1.1,0.2,1.6,0.1c1.4-0.2,2.8-0.1,4.2-0.1   C290.7,48.7,292,48.7,293.5,48.7z M292,66.4c0,0.2,0,0.3,0,0.4c0.1,0.4,0.3,0.5,0.6,0.4c0.3,0,0.5-0.1,0.4-0.5   c0-0.4,0.4-0.5,0.6-0.4c0.9,0.3,1.1-0.2,1.3-0.9c0-0.2,0.1-0.3,0.2-0.5c0-0.1,0-0.1,0.1-0.2c-0.1-0.1-0.3-0.2-0.4-0.2   c-0.1,0.1-0.2,0.2-0.4,0.3c0-0.6,0-0.6,0.3-1c-0.3-0.7-0.3-0.7-1.2-0.6c-0.1,0-0.2,0-0.3-0.1c-0.3-0.5-0.6-0.2-0.9-0.1   c0.2,0.2,0.3,0.3,0.5,0.4c-0.1,0.1-0.2,0.2-0.3,0.4c0.4,0,0.6,0,0.9,0.1c-0.2,0.4-0.4,0.8-0.6,1.2c-0.1-0.2-0.2-0.4-0.3-0.7   c-0.2,0.4-0.4,0.6-0.4,0.9c0,0.5,0.2,1,0.3,1.5C292.2,66.7,292.1,66.7,292,66.4z M296.6,50.9c0,0,0.1-0.1,0.1-0.1   c-0.2-0.3-0.5-0.7-0.7-1c-0.1-0.2-0.3-0.5-0.3-0.7c0-0.2,0.3-0.3,0.4-0.5c0.1-0.1,0.1-0.3,0.1-0.5c-0.1,0-0.4-0.1-0.4-0.1   c-0.2,0.4-0.6,0.3-0.8,0.5c-0.2,0.1-0.3,0.3-0.3,0.5c0,0.5,0.1,0.9,0.3,1.4c0.1,0.2,0.5,0.2,0.8,0.3   C296,50.7,296.3,50.8,296.6,50.9z M290.8,50.8c-0.3,0.5-0.6,0.9-0.9,1.4c0.8,0.1,0.8,0.6,0.9,1.1c0.1-0.2,0.2-0.5,0.2-0.7   c0-0.2-0.3-0.5,0.2-0.5c0.1,0.1,0.1,0.3,0.3,0.5c0.1-0.3,0.2-0.4,0.3-0.7C291,51.9,291.4,51,290.8,50.8z M299.6,49.2   c-0.2,0.5-0.2,1,0,1.5c0.2,0.6,0.2,0.6,0.8,0.5c0.1-0.3,0.2-0.6,0.3-0.9C299.7,50.5,300.2,49.4,299.6,49.2z M298.8,49.1   c-0.3,0.5-0.7,0.9-0.6,1.5c0,0.6,0.6-0.1,0.7,0.3c0,0,0.3,0,0.3-0.1c0.1-0.1,0-0.3,0-0.3c-0.5-0.3-0.4-0.7-0.3-1.1   C298.8,49.3,298.8,49.2,298.8,49.1z M286.9,66.3c0.7-0.5,0.4-1.1,0.5-1.7c-0.4,0.2-0.8,0.3-1.1,0.4   C286.5,65.5,286.7,65.8,286.9,66.3z M297.8,62.9c0.1-0.4,0.2-0.7,0.2-1c0-0.1-0.1-0.4-0.3-0.4c-0.1,0-0.4,0.1-0.4,0.2   c-0.1,0.2-0.1,0.5,0,0.7C297.4,62.5,297.6,62.7,297.8,62.9z M294.6,62.5c0.1,0,0.1,0,0.2,0c0.1-0.3,0.2-0.7,0.3-1.1   c-0.3,0.2-0.4,0.3-0.5,0.4c-0.2-0.2-0.3-0.3-0.5-0.4C293.6,62.1,294.6,62,294.6,62.5z M286.5,50.9c0.5,0.1,0.8,0.2,1.2,0.3   c-0.2-0.4,0-1-0.5-1.1C287,50.4,286.8,50.6,286.5,50.9z M279.3,49.6c0.2,0,0.4,0,0.6,0c-0.2-0.4,0.5-0.9-0.2-1.2   C279.5,48.8,279.4,49.2,279.3,49.6z M278.6,51.9c0.1,0,0.1,0,0.2,0c0-0.2-0.1-0.5-0.1-0.5c-0.5,0-0.3-0.3-0.3-0.6   c0-0.2,0-0.4,0.1-0.5c-0.1,0-0.1,0-0.2,0c-0.1,0.4-0.2,0.7-0.3,1.1C278.2,51.5,278.4,51.7,278.6,51.9z M298.3,46.9   c-0.3-0.2-0.6-0.4-0.9-0.6c-0.1,0.3-0.1,0.5-0.2,0.9C297.6,46.8,297.9,47.6,298.3,46.9z M275.3,48.5c-0.1,0.3,0,0.6,0.2,0.5   c0.4-0.2,0.5,0.2,0.8,0.2C276.2,48.4,276.2,48.4,275.3,48.5z M299.4,52.1c-0.2-0.3-0.5-0.3-0.6-0.1c-0.1,0.2-0.5,0.4,0,0.8   C298.9,52.5,299.2,52.3,299.4,52.1z M282.6,41.1c-0.1,0-0.1-0.1-0.2-0.1c-0.1,0.2-0.3,0.3-0.3,0.5c0,0.1,0.2,0.3,0.3,0.4   c0.1-0.1,0.2-0.2,0.3-0.4C282.6,41.4,282.6,41.2,282.6,41.1z M298.2,43.9c0.1,0,0.1,0,0.2,0.1c0.1-0.2,0.1-0.6,0.3-0.6   c0.3-0.2,0.4-0.3,0.2-0.6C298.3,43,298.3,43.5,298.2,43.9z M284.2,64.1c0.2,0.4,0.3,0.7,0.5,1.1c0.2-0.3,0.4-0.5,0.3-0.6   C285,64.2,284.7,64.2,284.2,64.1z M275.2,52.3c0,0.2,0,0.3,0.1,0.4c0.1,0.1,0.2,0.2,0.3,0.4c0.1,0.1,0.1,0.2,0.2,0.4   c0.1-0.3,0.1-0.5,0.2-0.7C275.7,52.6,275.5,52.5,275.2,52.3z M280.1,63.3c-0.3,0.3-0.6,0.5-0.4,0.9c0.2-0.1,0.4-0.1,0.6-0.1   C280.3,63.8,280.2,63.6,280.1,63.3z M291.5,62.6c0.1,0.3,0.2,0.5,0.3,0.8c0.2-0.2,0.3-0.4,0.5-0.5   C292.2,62.5,291.9,62.4,291.5,62.6z M285.6,65.9c-0.7-0.4-1-0.4-1.3,0C284.7,65.9,285,65.9,285.6,65.9z M293.4,61.3   c-0.3,0.2-0.5,0.4-0.9,0.6c0.5,0,0.7,0,1,0C293.5,61.7,293.4,61.6,293.4,61.3z M289.1,64.8c-0.1,0.1-0.2,0.2-0.4,0.2   c-0.1,0-0.2,0-0.5,0.1c0.2,0.2,0.3,0.3,0.4,0.5C288.9,65.3,289.3,65.3,289.1,64.8z M288.6,67.6c0.3-0.1,0.5-0.2,0.7-0.3   c-0.1-0.1-0.2-0.3-0.3-0.3C288.7,67,288.5,67.1,288.6,67.6z M295.7,45.4c0.4-0.2,0.6-0.3,0.9-0.5c-0.3-0.1-0.5-0.2-0.6-0.2   C295.9,44.9,295.8,45.1,295.7,45.4z M277.1,54.7c0.5-0.3,0.5-0.5,0-0.7C277.1,54.2,277.1,54.4,277.1,54.7z M277.4,43.5   c0,0.3,0,0.5,0,0.8C277.8,43.9,277.8,43.9,277.4,43.5z M278.2,46.8c-0.1,0-0.1,0-0.2,0c0,0.3-0.1,0.5-0.2,0.9   C278.4,47.4,278.2,47.1,278.2,46.8z M285.6,64c0-0.1,0.1-0.1,0.1-0.2c-0.4-0.4-0.4-0.4-0.9-0.2C285.1,63.8,285.4,63.9,285.6,64z    M286.8,63.6c-0.2,0.2-0.3,0.4-0.5,0.6C286.9,64.3,286.9,64.1,286.8,63.6z M300.9,44.9c-0.2-0.1-0.3-0.2-0.5-0.3   c0,0.1-0.2,0.2-0.1,0.2c0.1,0.1,0.2,0.2,0.4,0.3C300.6,45.2,300.7,45.1,300.9,44.9z M280.8,50.6c0.2-0.3,0.4-0.5,0.1-0.9   C280.6,50,280.7,50.3,280.8,50.6z M280.4,43.4c0.1,0,0.1,0,0.2,0.1c0.1-0.2,0.2-0.4,0.3-0.7C280.4,42.9,280.3,43.1,280.4,43.4z    M300.4,48.8c0.1-0.5-0.2-0.4-0.5-0.4c-0.1,0-0.1,0.1-0.2,0.3C300,48.7,300.2,48.8,300.4,48.8z M279.7,61.9c-0.1,0-0.1-0.1-0.2-0.1   c-0.1,0.1-0.3,0.2-0.5,0.3c0.1,0.1,0.2,0.2,0.3,0.5C279.5,62.3,279.6,62.1,279.7,61.9z M285.1,61.7c-0.2,0.1-0.3,0.1-0.5,0.2   c0.2,0.2,0.3,0.3,0.5,0.6C285.1,62.2,285.1,62,285.1,61.7z M296.1,51.6c0.1,0.3,0.3,0.4,0.5,0.3c0,0,0.1-0.2,0.1-0.2   C296.6,51.6,296.4,51.4,296.1,51.6z M281.6,61.8c0.2,0.2,0.2,0.4,0.4,0.6C282.2,62,282.3,61.8,281.6,61.8z M285.9,52.5   c-0.2,0.1-0.4,0.2-0.6,0.3c0.3,0.1,0.5,0.2,0.7,0.3C286,52.8,286,52.7,285.9,52.5z M294.7,47.7c0.3,0,0.6-0.1,0.6-0.4   C295,47.4,294.8,47.6,294.7,47.7z M300.1,52.1c-0.1-0.1-0.2-0.2-0.3-0.2c-0.1,0-0.2,0.1-0.3,0.2c0.1,0.1,0.1,0.2,0.2,0.2   C299.8,52.2,299.9,52.2,300.1,52.1z M298.8,63.4c-0.1,0-0.2,0-0.2,0.1c0.1,0.2,0.1,0.4,0.2,0.6c0.1,0,0.1,0,0.2,0   C298.9,63.8,298.9,63.6,298.8,63.4z M298.2,44c-0.1-0.3-0.2-0.5-0.3-0.6c-0.1,0.1-0.2,0.1-0.5,0.3C297.7,43.8,297.8,43.9,298.2,44z    M299.3,46.3c0-0.3,0-0.5,0-0.8c-0.2,0.2-0.3,0.3-0.4,0.4C299,46,299,46.1,299.3,46.3z M286,52.2c0.1-0.1,0.1-0.1,0.2-0.2   c-0.1-0.1-0.3-0.3-0.4-0.4c0,0-0.1,0.1-0.1,0.1C285.7,51.9,285.9,52,286,52.2z M283.7,65.5c0-0.1-0.1-0.1-0.1-0.2   c-0.1,0.2-0.3,0.3-0.4,0.5c0,0,0.1,0.1,0.1,0.1C283.4,65.8,283.6,65.7,283.7,65.5z M289.6,52.4c0.1-0.3,0.1-0.4,0.1-0.6   C289.3,51.9,289.3,52,289.6,52.4z M277.8,48.4c-0.1,0-0.1,0-0.2,0c0,0.2,0.1,0.3,0.1,0.5c0,0,0.1,0,0.1,0   C277.9,48.7,277.8,48.5,277.8,48.4z M280.2,62.1c0,0-0.1-0.1-0.1-0.1c-0.1,0.1-0.2,0.2-0.2,0.3c0.1,0,0.1,0.1,0.2,0.1   C280.1,62.3,280.2,62.2,280.2,62.1z M279,48.5c0,0-0.1,0.1-0.1,0.1c0.1,0.1,0.1,0.1,0.2,0.2c0-0.1,0.1-0.1,0.1-0.2   C279.1,48.6,279.1,48.5,279,48.5z M281.3,65.2c0,0.3,0,0.5,0,0.6c0,0,0.1,0,0.1,0C281.7,65.6,281.6,65.4,281.3,65.2z M290.6,49.7   c0,0,0,0.1-0.1,0.1c0.1,0,0.2,0.1,0.3,0.1c0,0,0-0.1,0.1-0.1C290.9,49.7,290.8,49.7,290.6,49.7z M290,37.4c0,0-0.1,0-0.1,0.1   c0.1,0.1,0.1,0.3,0.2,0.4c0,0,0.1,0,0.1-0.1C290.2,37.7,290.1,37.6,290,37.4z M290.1,67c0.1,0,0.1,0,0.2,0c0-0.1,0-0.2,0-0.4   c0,0,0,0-0.1,0C290.1,66.8,290.1,66.9,290.1,67z M290.1,64c-0.1-0.1-0.2-0.2-0.3-0.2c-0.1,0-0.2,0.1-0.2,0.2c0,0.1,0.1,0.2,0.2,0.2   C289.8,64.2,289.9,64.1,290.1,64z M276.7,59.8c-0.1,0.1-0.1,0.1-0.1,0.2c0,0.1,0.1,0.1,0.1,0.2c0-0.1,0.1-0.1,0.1-0.2   C276.9,59.9,276.8,59.8,276.7,59.8z M280.6,63.5c0,0-0.1,0-0.1,0.1c0,0.1,0,0.2,0,0.2c0,0.1,0.1,0.1,0.3,0.2   C280.7,63.8,280.7,63.7,280.6,63.5z M288.2,50.9c0,0,0.1,0,0.1-0.1c-0.1-0.1-0.1-0.2-0.2-0.3c0,0-0.1,0-0.1,0.1   C288.1,50.7,288.2,50.8,288.2,50.9z M277.5,52.8c0.1,0,0.1,0,0.2,0c0-0.1,0-0.2,0-0.3c-0.1,0-0.1,0-0.2,0   C277.5,52.5,277.5,52.7,277.5,52.8z" /><path
       id="XMLID_1338_"
       fill="#699E5F"
       d="M112.9,34c-1-0.2-1-0.9-1-1.6c0-0.5,0-1,0-1.4c0-0.3-0.1-0.7-0.1-1c0-0.2-0.1-0.4-0.1-0.5   c0-0.6-0.2-1.1-0.6-1.4c-0.5-0.3-1-0.7-1.6-0.8c-1.2-0.1-1.4-0.7-0.9-1.7c0.4-0.9,0.3-1.8,0.6-2.7c0.1-0.2,0-0.4,0.1-0.6   c0.1-0.6,0.4-1.1,1.1-1.2c0.6-0.1,1.2-0.3,1.8-0.2c0.5,0,1-0.1,1.5-0.2c0.4-0.1,0.8-0.3,1.3-0.1c0.1,0,0.2,0,0.2,0   c0.7-0.2,1.4-0.4,2.1-0.7c0.2,0,0.3-0.1,0.5-0.1c1,0,1.9-0.1,2.7-0.5c0.2-0.1,0.4-0.1,0.6-0.1c0.8,0,1.6-0.2,2.4-0.4   c1.1-0.3,1.6,0.1,1.9,1.2c0.3,1,0.6,1.9,0.8,2.9c0.1,0.3,0,0.7,0,1.1c0,0.4-0.3,0.6-0.7,0.7c-0.2,0-0.3,0.1-0.5,0.1   c-1.5,0.7-2,2-1.7,3.8c0.1,0.6,0.1,1.1,0.1,1.7c0,0.5,0.1,1,0.1,1.5c0,0.5,0,1-0.1,1.4c0,0.5,0,1,0,1.5c0,1.5,0,3,0,4.4   c0,2.1,0,4.3,0,6.4c0,1.1,0.1,2.1,0.1,3.2c0,1.1-0.1,2.1-0.1,3.2c0,1.2-0.1,2.4-0.1,3.5c0,0.9-0.1,1.8,0.2,2.7c0,0.2,0,0.4,0,0.6   c-0.2,0.7,0,1.4,0.3,2c0.2,0.6,0.7,0.9,1.4,1c0.2,0,0.4,0.1,0.6,0.1c0.9,0.1,1,0.1,0.8,1.2c-0.2,1.1-0.5,2.2-0.7,3.3   c-0.1,0.3-0.2,0.6-0.3,0.8c-0.2,0.4-0.5,0.5-1,0.6c-1,0-2,0.2-3,0.2c-0.6,0-1.2-0.1-1.7-0.1c-1,0-2,0-3-0.1c-1.1,0-2.3,0-3.4,0   c-0.7,0-1.3,0-2,0c-0.5,0-0.8-0.4-0.9-0.9c-0.2-1.5-0.5-3-0.7-4.5c0.5-0.2,1-0.6,1.6-0.6c0.5,0,0.9-0.4,1.1-0.8   c0.2-0.3,0.3-0.8,0.3-1.2c0-0.9-0.1-1.7-0.1-2.6c0-0.4,0-0.9,0-1.3c-0.1-2.1,0-4.2,0.1-6.3c0-0.5-0.1-1.1-0.1-1.6   c0-0.5,0.1-0.9,0.1-1.4c0-0.9-0.1-1.7-0.2-2.6c0-0.9,0-1.9-0.1-2.8c-0.1-0.8-0.2-1.5-0.3-2.3c0-0.2,0-0.4,0-0.6   c0-0.7,0.1-1.4,0.1-2.2c0-0.5,0.1-0.9,0.4-1.3C112.6,34.9,112.7,34.5,112.9,34z M119.7,47.2c0.2-0.5,0.2-0.6-0.4-0.8   C119.4,46.7,119.6,47,119.7,47.2c-0.3,0.3-0.2,0.6,0,0.9C119.7,47.8,120.1,47.5,119.7,47.2z M119.7,63.4c0.1-0.6-0.4-0.5-0.7-0.6   c0,0.2,0.1,0.3,0.2,0.3C119.3,63.2,119.5,63.3,119.7,63.4c-0.2,0.1-0.3,0.2-0.5,0.3c0.3,0.6,0.8,0.4,1.2,0.6   C120.2,64,119.9,63.7,119.7,63.4z M116.1,63c-0.4,0.4-0.6,0.7-0.9,1.1c0,0,0.1,0.1,0.2,0.2c0.2,0.1,0.4,0.2,0.5,0.1   c0.1-0.1,0.2-0.3,0.2-0.4C116.1,63.7,116.1,63.4,116.1,63z M121.6,65.5c-0.4,0-0.8,0-1.1,0.1c-0.1,0.3-0.2,0.6,0.1,0.9   c0.3-0.2,0.6-0.3,0.9-0.5C121.7,65.8,121.7,65.6,121.6,65.5z M115.4,49.2c-0.1-0.4,0.2-0.9-0.2-1.3   C114.6,48.5,115.3,48.8,115.4,49.2z M118.5,64.3c0.4,0.2,0.7,0.4,1.2,0.6c-0.4-0.5-0.6-0.9-0.9-1.2   C118.7,63.9,118.6,64.1,118.5,64.3z M124.7,63.7c0.3,0,0.5,0,0.6-0.1c0.1-0.1,0-0.3,0-0.6C125.1,63.3,124.9,63.5,124.7,63.7z    M120.8,44.7c-0.6,0.5-0.6,0.5-0.2,0.7C120.7,45.2,120.7,44.9,120.8,44.7z M118.2,62.4c0.1-0.3,0.1-0.5,0.2-0.9   C117.9,61.8,117.6,62,118.2,62.4z M114.7,45.4c-0.1,0-0.2,0-0.3,0c0.1,0.3,0.1,0.5,0.2,0.8c0.1,0,0.1,0,0.2,0   C114.7,45.9,114.7,45.6,114.7,45.4z M119.1,66.4c0,0.1-0.1,0.1-0.1,0.2c0.5,0.6,0.5,0.6,0.9,0.2C119.6,66.7,119.3,66.6,119.1,66.4z    M114.9,63.4c-0.2-0.3-0.4-0.2-0.6,0c0,0,0,0.3,0,0.3C114.6,63.7,114.8,63.7,114.9,63.4z M121.4,37.6c0,0.4,0,0.7,0,1   C121.3,38.3,121.9,38,121.4,37.6z M116.3,45.6c-0.5,0.3-0.5,0.3-0.2,0.8C116.1,46.1,116.2,45.9,116.3,45.6z M117.3,62.1   c-0.1,0-0.1,0-0.2,0c0,0.3,0,0.6,0,0.9c0,0,0.1,0,0.1,0C117.3,62.7,117.3,62.4,117.3,62.1z M120.2,56.3c-0.2,0.4,0,0.5,0.2,0.8   C120.6,56.7,120.4,56.5,120.2,56.3z M118.7,60.7c0-0.1,0-0.1,0-0.1c-0.1-0.1-0.3-0.1-0.4-0.2c0,0-0.1,0.1-0.1,0.1   c0.1,0.1,0.2,0.1,0.3,0.2C118.6,60.7,118.6,60.7,118.7,60.7z M115.7,61.7c0,0.2,0,0.4,0,0.7C116,62.1,116.1,61.9,115.7,61.7z    M118.9,42.7c0.4,0,0.7,0,0.7-0.4C119.4,42.4,119.2,42.5,118.9,42.7z M116,59.3c0.2,0.5,0.2,0.5,0.6,0.2   C116.4,59.4,116.2,59.4,116,59.3z M118.5,54.5c-0.1,0-0.1,0-0.2,0c0,0.1,0,0.3,0.1,0.4c0.1,0,0.2,0,0.2-0.1   C118.6,54.8,118.6,54.6,118.5,54.5z M121.6,58.4c0.1,0,0.1,0,0.2,0c0-0.1,0-0.3,0-0.4c0,0-0.1,0-0.1,0   C121.6,58.1,121.6,58.3,121.6,58.4z M120.3,50.8c-0.6,0.1-0.2,0.3-0.2,0.5c0,0,0.1,0,0.2,0C120.3,51.1,120.3,51,120.3,50.8z    M110.6,64.5c0,0-0.1,0.1-0.1,0.1c0.1,0.1,0.2,0.2,0.3,0.3c0,0,0.1-0.1,0.1-0.1C110.8,64.8,110.7,64.6,110.6,64.5z M119.2,65.3   c-0.1,0-0.1,0-0.2,0c0,0.2,0,0.3-0.1,0.5C119.4,65.7,119.3,65.5,119.2,65.3z M120.4,57.9c0,0.1,0,0.1,0,0.2c0.2,0,0.3-0.1,0.5-0.1   c0,0,0-0.1,0-0.1C120.8,57.8,120.6,57.9,120.4,57.9z M121.4,54c-0.1-0.1-0.2-0.2-0.2-0.2c0,0-0.1,0.1-0.2,0.1   c0.1,0.1,0.1,0.2,0.2,0.2C121.1,54.1,121.2,54,121.4,54z M115.7,47.3c0-0.1,0.1-0.1,0.1-0.2c-0.1-0.1-0.2-0.2-0.3-0.2   c0,0-0.1,0.1-0.1,0.2C115.5,47.1,115.6,47.2,115.7,47.3z M115.5,37.4c0,0-0.1,0-0.2-0.1c-0.1,0.1-0.2,0.2-0.3,0.4   C115.5,37.8,115.5,37.6,115.5,37.4z M120.1,61c0.1,0.3,0.1,0.4,0.2,0.6C120.7,61.3,120.6,61.2,120.1,61z M116.2,41.2   c-0.1,0-0.1-0.1-0.2-0.1c-0.1,0.1-0.2,0.3-0.2,0.4c0.1,0,0.1,0.1,0.2,0.1C116,41.4,116.1,41.3,116.2,41.2z M113.9,46.6   c0-0.3-0.1-0.5-0.5-0.4C113.6,46.4,113.7,46.5,113.9,46.6z M121.1,60c0,0,0-0.1-0.1-0.1c-0.1,0-0.2,0-0.3,0   c-0.1,0.1-0.1,0.2-0.1,0.4C120.9,60.2,121,60.1,121.1,60z M115.6,58.1c0.1,0,0.1,0,0.2-0.1c0-0.1,0-0.3-0.1-0.4   c-0.1,0-0.2,0-0.2,0.1C115.5,57.8,115.5,58,115.6,58.1z M120.2,58.4c-0.1,0-0.1,0-0.2,0c0,0.2,0.1,0.3,0.1,0.5c0,0,0.1,0,0.1,0   C120.2,58.7,120.2,58.6,120.2,58.4z M119.2,50.4c0,0,0.1,0,0.1,0c0-0.1,0.1-0.2,0.1-0.3c0,0-0.1,0-0.1-0.1   C119.3,50.2,119.3,50.3,119.2,50.4z M121.9,51.8c-0.1-0.1-0.1-0.1-0.2-0.2c0,0-0.1,0.1-0.1,0.1c0,0.1,0.1,0.1,0.1,0.2   C121.8,51.9,121.8,51.8,121.9,51.8z M119.8,33.1C119.8,33,119.8,33,119.8,33.1c0-0.2,0-0.3-0.1-0.6c-0.1,0.2-0.1,0.3-0.1,0.4   C119.6,32.9,119.7,33,119.8,33.1z" /><path
       id="XMLID_850_"
       fill="#699E5F"
       d="M264.2,66.8c0,0.2-0.1,0.4-0.1,0.8c-0.3-0.3-0.4-0.4-0.6-0.6c0,0-0.1,0-0.1,0   c-0.1,0.2-0.1,0.4-0.2,0.6c-0.1,0-0.1,0-0.2,0c0-0.1-0.1-0.3-0.1-0.4c0-0.2,0.1-0.5,0.1-0.7c0.1-0.4,0.1-0.4-0.3-0.5   c0.1,0.2,0.2,0.3,0.3,0.5c-0.1,0-0.3,0-0.4,0.1c-0.8,0.5-1,0.6-1.8,0.2c-0.1,0.2-0.1,0.4-0.2,0.5c-0.1,0.1-0.3,0.2-0.6,0.3   c0-0.3,0.1-0.5,0.1-0.7c0-0.1-0.2-0.2-0.4-0.4c0.4-0.2,0.6-0.4,1-0.5c-0.1-0.2-0.2-0.4-0.4-0.7c-0.3,0.3-0.6,0.6-1.1,1   c0,0.1,0.1,0.3,0.2,0.6c0.1,0.4,0,0.6-0.4,0.6c-0.6,0-1-0.4-1.3-1.1c-0.3-0.9-0.3-1.9-0.5-2.8c0-0.3-0.2-0.6-0.2-0.9   c0-0.3,0-0.6,0-0.9c0.5-0.1,0.9-0.1,1.4-0.1c0.9-0.2,1.5-0.9,1.6-1.8c0.1-1.3,0.2-2.5,0.3-3.8c0-0.6,0-1.3,0-1.9   c0-0.9-0.1-1.8,0-2.8c0.1-0.7,0-1.5,0-2.2c0-1.3-0.1-2.6-0.1-3.9c0-1.1,0-2.2,0-3.3c0-0.3,0-0.6-0.1-0.9c-0.2-0.4-0.2-0.7,0-1.1   c0-0.1,0-0.2,0-0.2c-0.3-1.2,0-2.5-0.1-3.7c-0.1-1.3-0.1-2.5-0.1-3.8c0-0.9,0-1.8-0.1-2.7c0-0.5-0.2-1-0.4-1.5   c-0.3-0.8-1-1.1-1.7-1.4c-0.2-0.1-0.3-0.1-0.5-0.1c-0.8-0.3-1-0.7-0.8-1.5c0.2-1,0.5-2,0.7-3c0.1-0.5,0.5-0.8,0.8-1   c0.4-0.2,0.9-0.4,1.3-0.6c0.3-0.1,0.7-0.2,1.1-0.1c0.4,0.1,0.9,0,1.4-0.1c0.2,0,0.5-0.1,0.7-0.1c0.5,0,1.1,0,1.6-0.3   c0.5-0.2,1-0.3,1.6-0.4c1-0.1,1.9-0.4,2.6-1.1c0.6,0.1,1,0.3,1.6,0.4c0.5-0.8,1.4-0.6,2.1-0.8c0.2,0,0.5,0.2,0.6,0.3   c0.3,0.5,0.5,1.1,0.7,1.7c0.3,0.9,0.4,1.8,0.7,2.7c0.2,0.8,0.1,1-0.6,1.4c-0.4,0.3-0.9,0.5-1.3,0.9c-0.5,0.4-0.8,0.9-0.7,1.5   c0,0.2-0.1,0.4-0.1,0.6c0,0.2-0.1,0.4-0.1,0.6c0,1.6,0,3.1,0,4.7c0,1.6-0.1,3.3-0.1,4.9c-0.1,2-0.1,4.1-0.1,6.1c0,1-0.2,2-0.2,3   c0,1.2,0,2.4,0,3.5c0,0.9,0.1,1.9-0.1,2.8c-0.2,0.9,0,1.7,0,2.5c0,0.9,0,1.8,0,2.7c0.1,0.6,0.3,1.2,0.4,1.8c0.2,0.9,1,1.2,1.6,1.7   c0.1,0.1,0.3,0.1,0.4,0.1c0.7,0.1,0.8,0.2,0.7,0.9c-0.1,0.6-0.2,1.2-0.3,1.8c-0.1,0.7-0.3,1.4-0.4,2.1c-0.1,0.7-0.5,0.9-1.1,0.9   c-1.4,0-2.8-0.2-4.2,0c-0.4,0.1-0.8,0-1.3-0.1c-0.3-0.1-0.6-0.1-1,0c-0.2,0.1-0.4-0.1-0.6-0.1C264.6,66.8,264.6,66.8,264.2,66.8   c0.1-0.2,0.1-0.4,0.2-0.7c0.3,0,0.7-0.1,1-0.4c-0.5-0.1-0.9-0.2-1.4-0.2c-0.1-0.3,0.5-0.5,0.1-0.9c0.3,0.1,0.6-0.2,0.6-0.4   c-0.1-0.4-0.5-0.2-0.9-0.5c0.2,0.4,0.3,0.6,0.4,0.9c-0.2,0-0.4,0.1-0.6,0.1c-0.2,0.3,0.6,0.5,0,0.8c0.3,0.4-0.1,0.5-0.3,0.8   C263.7,66.5,264.2,66.3,264.2,66.8z M270.6,62.6c0.2-0.4,0.2-0.4-0.1-1.1C270.3,61.9,270.5,62.2,270.6,62.6   c0.1,0.3,0.3,0.6,0.4,0.8C271,62.8,271,62.8,270.6,62.6z M267.7,59.7L267.7,59.7c0.2-0.2,0.4-0.4,0.6-0.6c-0.4-0.9-0.4-0.9,0.1-1.5   c-0.1,0.4-0.2,0.8,0.3,1.1c0.1-0.2,0.1-0.3,0.2-0.4c0.4-0.4,0.4-0.4-0.1-0.6c-0.1,0-0.2-0.1-0.3-0.2c0.1-0.4,0.5-0.7,0.1-1.1   c-0.2,0-0.4,0-0.6-0.1c-0.2-0.1-0.3-0.3-0.6-0.6c0.1,0.7,0.2,1.1,0.3,1.6c-0.3,0.1-0.5,0.1-0.7,0.2c0-0.3,0.1-0.6-0.4-0.7   c-0.3,0.5-0.1,0.8,0.2,1.2c-0.3,0.6-0.5,1.1-0.8,1.6c0.2,0.4,0.4,0.9,0.6,1.3c0.3,0.5-0.2,1,0.1,1.5c0.7-0.1,1.3-0.2,1.2-1l0,0   c-0.4-0.5,0-0.9,0.4-1.4C267.9,60.1,267.7,59.9,267.7,59.7z M265.6,64.5c0.2-0.3,0.3-0.6,0.5-0.8c-0.6-0.6-0.6-0.6-0.3-1.2   c0.2,0,0.3,0,0.5,0.1c0.1-0.4,0.3-0.8,0-1.1c-0.7-0.6-0.8-1.6-0.4-2.4c0.2-0.3,0.3-0.6,0-1c-0.1,0.2-0.2,0.4-0.4,0.7   c-0.1-0.5-0.2-0.8-0.2-1.2c0-0.4,0.1-0.7,0.1-1.1c-0.1,0-0.1,0-0.2-0.1c-0.2,0.2-0.3,0.4-0.4,0.4c0.1,0.3,0.3,0.6,0.3,0.7   c-0.2,0.5-0.1,0.9,0.1,1.4c0.1,0.3,0,0.7,0,1.1c0,0.1-0.2,0.1-0.4,0.1c0.1,0.6,0.6,0.5,0.9,0.7c0,0.4,0,0.8,0,1.1   c-0.1,0.5-0.3,0.9-0.3,1.4C265.2,63.7,265.2,64.1,265.6,64.5z M268.5,66.4c0.3-0.4,0.5-0.7,0.8-1c-0.6-0.3-0.5,0.5-0.9,0.5   c-0.2-0.1-0.4-0.2-0.6-0.2c-0.3,0.5-0.4,0.9-0.1,1.5C267.8,66.7,267.9,66.2,268.5,66.4z M266.3,65.5c0.2,0.5,0.4,0.9,0.6,1.5   c0-0.6,0.1-1.1,0.1-1.6C266.7,65.3,266.4,65.2,266.3,65.5z M264.7,62.3c0.1-0.5,0.1-0.8,0.2-1.3c0,0-0.1-0.1-0.2-0.2   c-0.2,0.2-0.4,0.4-0.6,0.7C264.2,61.8,264.4,62,264.7,62.3z M268.7,53.7c0,0.2,0.1,0.3,0.2,0.5c0.3-0.4,0.1-0.6,0-0.9   c-0.3,0-0.6,0-1,0c0.2,0.3,0.3,0.5,0.4,0.7C268.4,53.9,268.5,53.8,268.7,53.7z M262.8,35.2c-0.1,0.4-0.1,0.7-0.2,1   c0.2,0.1,0.4,0.1,0.7,0.2C263.5,35.9,263.2,35.6,262.8,35.2z M261,66.3c0,0.1,0,0.1,0,0.2c0.2,0.1,0.5,0.1,0.7,0.2   c0.1-0.3,0.1-0.6,0.2-0.8C261.3,65.4,261.2,66.1,261,66.3z M265.4,55.1c0.1,0.5,0.2,0.9,0.2,1.3c0,0,0.1,0,0.1,0   c0.1-0.3,0.2-0.5,0.4-0.8C265.9,55.4,265.7,55.3,265.4,55.1z M269.2,59.5c-0.5,0.3-0.5,0.6-0.3,1C269.4,60.1,269.4,60.1,269.2,59.5   z M267.2,63.8c0.4,0,0.6,0,0.9,0c-0.1-0.3-0.1-0.5-0.2-0.8C267.7,63.3,267.5,63.5,267.2,63.8z M268.6,43.6c0.3,0.2,0.4,0.1,0.5-0.2   c0.1-0.3,0.2-0.6-0.3-0.6C268.8,43.1,268.7,43.3,268.6,43.6z M270.8,66c-0.4,0.5-0.4,0.5-0.1,1C270.8,66.6,270.8,66.3,270.8,66z    M263.4,60.2c0.3,0.5,0.3,0.5,0.7,0.3C263.8,60.4,263.6,60.3,263.4,60.2z M267.7,48.3c-0.1,0.3-0.3,0.5,0,0.8   C268,48.9,267.9,48.7,267.7,48.3z M267,54.3c-0.1,0.5-0.1,0.5,0.5,0.5C267.2,54.6,267.1,54.5,267,54.3z M264.8,32.1   c-0.3,0.2-0.3,0.4-0.1,0.6c0,0.1,0.2,0,0.4,0C264.9,32.4,264.8,32.2,264.8,32.1z M259.1,63.9c0.1,0,0.1,0,0.2,0   c0-0.2,0.1-0.5-0.3-0.7C259.1,63.5,259.1,63.7,259.1,63.9z M271.5,64.2c0.3-0.3,0.3-0.3,0-0.6C271.5,63.7,271.5,63.9,271.5,64.2z    M265,66.4c0,0.1-0.1,0.1-0.1,0.2c0.1,0.2,0.2,0.3,0.5,0.1C265.2,66.6,265.1,66.5,265,66.4z M260.2,64.2c0,0,0.1,0,0.1,0   c0-0.1,0-0.2-0.1-0.4c-0.1,0-0.1,0-0.1,0C260.2,64,260.2,64.1,260.2,64.2z M265.9,65.6c0-0.1,0.1-0.1,0.1-0.2   c-0.1-0.1-0.2-0.2-0.4-0.3c0,0.2,0,0.3,0.1,0.4C265.7,65.5,265.8,65.5,265.9,65.6z M263.1,65.2c0,0-0.1,0-0.1,0c0,0.1,0,0.3,0,0.4   c0,0,0.1,0,0.1,0C263.1,65.5,263.1,65.4,263.1,65.2z M269.1,49.5c-0.1,0-0.1,0-0.2,0c0,0.2,0,0.3-0.1,0.5c0.1,0,0.1,0,0.2,0   C269.1,49.8,269.1,49.6,269.1,49.5z M270.1,59.9c0.1-0.1,0.1-0.1,0.2-0.2c-0.1-0.1-0.3-0.2-0.4-0.3c0,0.1-0.1,0.1-0.1,0.2   C269.9,59.6,270,59.7,270.1,59.9z M271.2,66.4c-0.1,0.1-0.2,0.2-0.1,0.2c0,0.1,0.1,0.1,0.2,0.1c0,0,0.2-0.1,0.1-0.1   C271.4,66.6,271.3,66.5,271.2,66.4z M262.1,52.4c-0.3,0.2-0.3,0.2-0.1,0.5C262.1,52.8,262.1,52.6,262.1,52.4z" /><path
       id="XMLID_842_"
       fill="#699E5F"
       d="M171.2,37.9c-0.7,1.4-0.4,2.7,0.1,4.1c0.2,0.6,0.2,0.7-0.4,0.9c-0.2,0.1-0.4,0.2-0.7,0.3   c-0.1,0.1-0.3,0.1-0.5,0.1c-0.9-0.2-1.9-0.4-2.8-0.4c-0.4,0-0.7-0.4-0.7-0.8c-0.3-1.2-0.5-2.3-0.4-3.6c0.1-0.7,0.3-1.3,0.6-1.8   c0.1-0.1,0.2-0.2,0.2-0.3c0.3-0.6,0.5-1.3,1.1-1.6c-0.2-0.4-0.4-0.8-0.5-1.1c0.6-0.5,0.7-0.6,0.4-1.3c-0.7-1.8-1.5-3.5-3-4.7   c-0.3-0.3-0.7-0.5-1-0.7c-1.4-0.9-1.6-1-3.5-1.3c-0.1,0.1-0.2,0.3-0.3,0.4c-0.2,0.5-0.6,0.8-1.1,0.9c-1.2,0.3-2.4,0.2-3.5-0.5   c-0.4-0.2-0.9-0.4-1.2-0.7c-0.6-0.4-1.2-0.9-1.8-1.4c-0.2-0.2-0.4-0.4-0.6-0.5c-0.8-0.4-1.3-1.1-1.8-1.8c-0.1-0.2-0.2-0.3-0.4-0.4   c-1.2-0.6-1.6-2-2.6-2.9c-0.1-0.7-0.8-1.1-0.9-1.9c-0.1-1.1,0.7-2,1.7-1.8c0.6,0.1,1.3,0.3,1.9,0.7c0.5,0.4,1,0.3,1.5,0.1   c0.3,0.1,0.5,0.3,0.7,0.4c0.4-0.1,0.8-0.1,1.1-0.1c0.4-0.1,0.8,0,1.1-0.2c0.7-0.3,1.3-0.3,1.9,0c0.2,0.1,0.4,0.1,0.6,0.1   c1.4,0.1,2.3,0.8,3,1.9c0.1,0.1,0.1,0.2,0.2,0.3c0.7,0.8,0.6,1.8,0.6,2.7c0,0.4-0.2,0.8-0.4,1.1c0.2,0.5,0.7,0.6,1.1,0.6   c0.7,0,1.2,0.4,1.7,0.7c0.6,0.4,1.3,0.8,1.9,1.2c0.1,0,0.2,0.1,0.2,0.1c0.8,0.7,1.6,1.4,2.3,2.2c0.5,0.6,1,1.2,1.4,1.8   c0.4,0.6,0.6,1.3,1,1.9c0.1,0.2,0.3,0.4,0.5,0.7c0.2-0.3,0.3-0.5,0.4-0.7c0.4-1.1,0.9-2.2,1.6-3.2c0.4-0.6,0.8-1.3,1.5-1.7   c0.7-0.4,1.1-1.3,1.5-2c0.5-0.9,0.6-1.8,0.6-2.7c0-0.6,0.5-1.2,1.2-1.3c0.5-0.1,0.8,0.3,1,0.9c0.3,1.1,0.2,2.1-0.4,3.1   c-0.2,0.4-0.3,0.9-0.5,1.3c-0.2,0.4-0.5,0.8-0.8,1.2c-0.4,0.6-0.8,1.2-1.2,1.9c-0.2,0.2-0.3,0.5-0.4,0.7c-0.1,0.3-0.3,0.7-0.3,1   c-0.1,0.6-0.2,1.2-0.3,1.9c0.4,0,0.7-0.1,1-0.1c0.9-0.1,1.8-0.3,2.8-0.4c0.2,0,0.4,0,0.6,0c0.2,0,0.4,0.1,0.5,0   c0.8-0.6,1.8-0.3,2.7-0.6c0.8-0.3,1.5-0.6,2.2-1c0.6-0.3,0.8-0.8,1.5-1.2c-0.7-0.2-1.1,0-1.6,0c-0.3,0-0.6,0-0.8-0.3   c-0.1-0.3,0-0.6,0.2-0.8c0.4-0.6,0.8-1.2,1-2c0,0-0.1-0.1-0.1-0.2c-0.6,0.4-0.8,1.1-1.2,1.6c-0.4,0.6-0.6,1.3-1.4,1.6   c-0.2,0.1-0.3,0.3-0.4,0.5c-0.4,0.7-1.1,0.9-1.8,1c-0.5,0.1-0.9-0.4-1-1c-0.2-1.3,0.2-2.5,0.9-3.6c0.5-0.7,1.1-1.2,1.7-1.7   c0.6-0.6,1.4-0.8,2.2-1c1.2-0.3,2.5-0.4,3.8-0.5c1.3-0.1,2.6-0.4,3.8-0.9c0.2-0.1,0.4-0.3,0.7-0.5c0.8-0.5,1.6-0.5,2.1,0   c0.3,0.2,0.4,0.5,0.3,0.9c-0.1,0.4-0.2,0.9-0.4,1.3c-0.4,0.7-0.6,1.5-1.2,2.1c-0.4,0.4-0.5,1-0.8,1.5c-0.1,0.1-0.2,0.3-0.3,0.4   c-0.9,0.6-1.2,1.6-1.8,2.3c-0.7,0.8-1.3,1.6-2,2.3c-0.6,0.7-1.3,1.2-2,1.8c-0.9,0.7-1.9,1.2-3,1.4c-1,0.2-2.1,0.4-3-0.5   c-0.2-0.2-0.5-0.5-0.6-0.7c-0.2-0.4-0.5-0.5-0.8-0.4c-0.9,0.3-1.7,0.6-2.5,1c-0.6,0.3-0.5,0.4-0.2,1c0.6,1.1,1.8,1.6,2.4,2.7   c0.2,0.3,0.6,0.4,0.8,0.6c0.3,0.3,0.3,0.5-0.1,0.7c-0.2,0.1-0.4,0.2-0.5,0.2c-0.8,0-1.5,0.3-2.1,0.7c-0.3,0.2-0.6,0.1-0.9-0.1   c-0.9-0.5-1.7-1.2-2.3-2.1C171.8,38,171.7,37.8,171.2,37.9z M154.4,21.9c0.5,0.3,0.8,0.6,1.2,0.8c0.6,0.3,1.3,0.6,2,0.7   c0.4,0.1,0.9,0,1.2-0.1c0.2-0.1,0.3-0.4,0.3-0.7c0,0-0.3-0.2-0.4-0.3c-0.2-0.1-0.4-0.1-0.6-0.2c-0.7-0.7-1.4-1.5-2-2.2   c-0.2-0.2-0.4-0.4-0.7-0.6c-0.1,0.9,0.9,1.3,0.5,2.2C155.5,21.6,155,21.7,154.4,21.9z M170.7,37.3c0.4-0.7,0.4-0.8,0-1.2   C170.7,36.5,170.7,36.9,170.7,37.3z M170,36.3c-0.2,0.3-0.6,0.3-0.5,0.7c0,0,0.1,0.1,0.1,0.1C170,37.1,170,36.8,170,36.3z    M186.5,28.2c0.4-0.4,0.4-0.4-0.1-0.5C186.5,27.8,186.5,28,186.5,28.2z M184,33.1c0.3,0.2,0.4,0.2,0.5-0.2   C184.2,33,184.1,33,184,33.1z M175.8,32.5c0,0-0.1,0-0.1,0c0,0.1-0.1,0.2-0.1,0.4c0,0,0.1,0,0.1,0   C175.8,32.7,175.8,32.6,175.8,32.5z" /><path
       id="XMLID_836_"
       fill="#699E5F"
       d="M176.8,19.6c-0.3-0.2-0.6-0.4-0.8-0.6c-0.3-1.5-0.1-3,0.2-4.5c0.1-0.7,0.4-1.3,0.7-1.9   c0.1-0.4,0.4-0.7,0.2-1.2c-0.8,0.6-1.3,1.3-1.5,2.3c-0.1,0.6-0.3,1.2-1,1.4c-0.7-0.6-1.4-1.2-1.4-2.3c0-0.5-0.1-1-0.2-1.6   c-0.5,0.6-0.7,1.9-0.5,2.7c0.1,0.3,0.1,0.7,0.1,1c0,0.6,0.1,1.2,0.3,1.8c0.2,0.6,0.4,1.1,0.7,1.7c0.2,0.4,0.5,0.9,0.9,1.3   c0.3,0.3,0.5,0.7,0.7,1.1c0.2,0.5,0.1,0.7-0.2,1.2c-0.6,0.7-1.4,0.8-2.2,1.1c-0.9,0.3-1.7,0.1-2.5-0.2c-0.2-0.1-0.4-0.2-0.6-0.4   c-0.4-0.6-1-1.1-1.2-1.8c-0.1-0.6-0.4-1.1-0.5-1.7c-0.4-1.8-0.6-3.6-0.2-5.4c0.1-0.4,0.1-0.9,0.1-1.4c0.1-0.4,0.2-0.9,0.3-1.3   c0-0.2,0.2-0.3,0.2-0.5c0.1-1,0.5-1.9,0.9-2.8c0.1-0.2,0.2-0.4,0.2-0.6c0.1-0.6,0.2-1.1,0.6-1.5c0.3-0.3,0.3-0.9,0.5-1.3   c0.4-0.9,0.8-1.8,1.3-2.7c0.2-0.4,0.6-0.8,1-1c0.9-0.6,2.1,0,2.4,1.1c0.1,0.2,0.1,0.4,0.1,0.6c0.1,0.7,0.3,1.4,0.7,2   c0.4,0.6,0.6,1.3,1.3,1.7c0.5,0.3,0.8,0.9,1.1,1.3c0.8,0.9,1.6,1.8,2.4,2.7c0.1,0.1,0.2,0.3,0.2,0.4c0,0.1,0,0.2,0.1,0.3   c0.6,0.9,0.7,1.9,0.9,2.9c0.1,0.4,0.1,0.8,0,1.3c-0.2,1.2-0.8,2.2-1.5,3.2c-0.8,1-1.8,1.7-3.2,1.8   C177.1,19.5,176.9,19.6,176.8,19.6z M178.6,14c0-0.4,0-0.6,0.1-1c-0.3,0.2-0.4,0.3-0.6,0.5C178.2,13.6,178.3,13.8,178.6,14z    M172.8,19.6c-0.3,0.7-0.3,0.7,0.1,0.8C173,20.1,173.3,19.8,172.8,19.6z M168.7,13.9c0.5,0.3,0.5,0.3,0.6-0.2   C169.1,13.8,168.9,13.8,168.7,13.9z M177.3,8.8c0.1,0,0.1,0,0.2,0c0-0.2-0.1-0.3-0.1-0.5c0,0-0.1,0-0.1,0   C177.3,8.5,177.3,8.6,177.3,8.8z" /><path
       id="XMLID_829_"
       fill="#699E5F"
       d="M183.9,52.4c-0.1,0.1-0.2,0.4-0.3,0.4c-1.1,0.4-2,1.1-3.2,1.3c-0.7,0.1-1.5,0.3-2.2,0.3   c-0.7,0-1.4,0-2-0.2c-1-0.3-2.2-0.3-3.1-1c-0.2-0.1-0.5-0.1-0.7-0.2c-0.5-0.3-0.9-0.6-1.1-1.2c-0.1-0.4-0.4-0.7-0.7-1.1   c0.2-0.2,0.4-0.3,0.6-0.5c-0.2-0.1-0.4-0.1-0.6-0.2c-0.2-1.4,0.1-2.7,1.1-3.7c0.6-0.6,1.2-1.4,1.8-2c0.6-0.7,1.4-1.1,2.2-1.5   c0.8-0.5,1.6-0.7,2.4-0.9c1.7-0.4,3.4-0.5,5.1-0.4c0.8,0.1,1.4,0.4,2.1,0.8c0.7,0.4,1.2,1,1.6,1.6c1.2,1.4,1.2,3.1,0.7,4.7   c-0.3,1.2-1.1,2.2-2.2,3c-0.2,0.2-0.5,0.4-0.7,0.5C184.6,52.2,184.3,52.3,183.9,52.4z M173.5,48.9c-0.1,0.2-0.3,0.5-0.3,0.7   c0,0.4,0.1,0.8,0.3,1c0.5,0.4,1.2,0.2,1.6,0.8c0,0,0,0,0.1,0c1,0.1,2,0,3,0.2c0.9,0.2,1.7,0.1,2.4-0.2c0.8-0.3,1.4-0.8,2.1-1.3   c0.6-0.4,1.1-0.8,1.6-1.3c0.7-0.6,0.9-1.8,0.4-2.5c-0.3-0.5-0.7-0.5-0.9,0c-0.1,0.1-0.1,0.3-0.2,0.4c-0.3,0.4-0.5,0.8-0.8,1.1   c-0.7,0.4-1.5,0.7-2.2,1.1c-0.7,0.3-1.6,0.3-2.3,0.8c-0.4,0.3-0.7,0.6-1.2,0.3c-0.1,0-0.2,0-0.3,0.1c-0.4,0.4-0.7,0.2-1.1,0   c-0.2-0.1-0.5-0.2-0.7-0.3C174.5,49.5,174.1,49.2,173.5,48.9z M180.8,42.8c-0.2,0.2-0.4,0.3-0.6,0.5c0.3,0.6,0.7,0.5,1.1,0.4   C181.5,43.1,181.1,43,180.8,42.8z M173.5,51.9c-0.2,0.4-0.3,0.6-0.5,0.9C173.7,52.7,173.5,52.3,173.5,51.9z M175.5,46.1   c0-0.1,0-0.1-0.1-0.2c-0.2,0.1-0.3,0.2-0.5,0.2c0,0,0,0.1,0.1,0.1C175.1,46.2,175.3,46.1,175.5,46.1z M178.4,48.4   c0.3-0.4,0.3-0.4,0-0.5C178.4,48,178.4,48.1,178.4,48.4z" /><path
       id="XMLID_817_"
       fill="#699E5F"
       d="M172.6,55.8c-0.2,0.5-0.4,1-0.6,1.4c-0.4,0.7-1.5,1.1-2.3,0.9c-0.1,0-0.2-0.1-0.2-0.1   c-1.3-0.1-2.3-0.7-3.2-1.4c-0.4-0.3-1-0.6-1.3-1c-0.6-0.6-1.3-1.2-1.8-1.9c-0.4-0.7-0.6-1.5-0.9-2.2c-0.5-1.1-0.2-2.2,0.1-3.3   c0.1-0.3,0.4-0.7,0.6-0.9c0.6-0.6,1.3-1.2,2.1-1.6c0.1-0.1,0.3,0,0.5-0.1c0.2,0,0.5,0,0.6-0.1c0.7-0.5,1.3-0.3,2-0.1   c0.2,0,0.4,0.1,0.6,0.1c0.6,0.1,0.7,0.3,0.3,0.8c-0.1,0.2-0.3,0.4-0.4,0.6c-0.6,1.2-0.4,2.4-0.1,3.6c0.1,0.4,0.2,0.8,0.3,1.2   c0.1,0.3,0.2,0.6,0.4,0.8c0.8,1,1.6,2,2.7,2.7C172.2,55.5,172.3,55.6,172.6,55.8z M166.5,53.6c0.8-0.6,0.7-1.3,0.5-2   c-0.6-0.2-0.3,0.6-0.7,0.6c0.3,0.4,0,0.8,0,1.1C166.2,53.4,166.4,53.5,166.5,53.6z M166.1,50.2c-0.1,0.6-0.9,1-0.4,1.7   C166.5,51.4,166.2,50.8,166.1,50.2z M165.5,54.8c0.3,0,0.4-0.1,0.4-0.1c0.1,0,0.1,0,0.2-0.1c0-0.6,0-0.6-0.7-0.9   c0.2,0.3,0.3,0.5,0.5,0.8C165.8,54.6,165.7,54.6,165.5,54.8z M167.8,51.8c0.1,0.3,0.2,0.5,0.2,0.7c0,0.3,0,0.5,0.3,0.5   C168.3,52.2,168.2,52.1,167.8,51.8z M166.1,48c-0.5-0.2-0.6,0-0.5,0.5C165.8,48.3,166,48.2,166.1,48z M168,54.2   c0.2-0.2,0.4-0.4,0-0.6C168,53.8,168,54,168,54.2z M166.4,54.5c0.2-0.1,0.5-0.2,0.1-0.4C166.5,54.2,166.4,54.3,166.4,54.5z M167,51   c-0.1,0-0.2-0.1-0.3-0.1c-0.1,0-0.1,0.1-0.2,0.1c0.1,0.1,0.2,0.1,0.3,0.2C166.8,51.2,166.9,51.1,167,51z" /><path
       id="XMLID_816_"
       fill="#699E5F"
       d="M268,61.4c-0.2,0.4-0.5,0.4-0.9,0.4C267.3,61.4,267.6,61.3,268,61.4L268,61.4z" /><path
       id="XMLID_815_"
       fill="#699E5F"
       d="M293.2,51.3c0.2,0,0.3,0.1,0.5,0.1c0.1,0.3,0,0.5-0.2,0.5c-0.1,0-0.3-0.3-0.4-0.4   C293.1,51.4,293.1,51.4,293.2,51.3z" /><path
       id="XMLID_814_"
       fill="#699E5F"
       d="M295.1,52.4C295.1,52.3,295,52.3,295.1,52.4c0-0.2,0-0.4,0-0.5c0.1,0,0.2,0,0.3,0.1   C295.4,52.2,295.2,52.2,295.1,52.4C295,52.3,295.1,52.4,295.1,52.4z" /><path
       id="XMLID_813_"
       fill="#699E5F"
       d="M267.7,59.7c-0.5,0.4-0.5,0.8-0.2,1.5c-0.9-0.9-1-1.2-0.1-2   C267.4,59.3,267.5,59.5,267.7,59.7C267.7,59.7,267.7,59.7,267.7,59.7z" /></g></svg>